<svg width="56" height="56" viewBox="0 0 56 56" fill="none" xmlns="http://www.w3.org/2000/svg">
<path d="M0 8C0 3.58172 3.58172 0 8 0H48C52.4183 0 56 3.58172 56 8V48C56 52.4183 52.4183 56 48 56H8C3.58172 56 0 52.4183 0 48V8Z" fill="white" fill-opacity="0.1"/>
<path d="M26.1818 30.6392V30.3977C26.1866 29.5691 26.2599 28.9086 26.402 28.4162C26.5488 27.9238 26.7618 27.526 27.0412 27.223C27.3205 26.92 27.6567 26.6454 28.0497 26.3991C28.3433 26.2098 28.6061 26.0133 28.8381 25.8097C29.0701 25.6061 29.2547 25.3812 29.392 25.1349C29.5294 24.884 29.598 24.6046 29.598 24.2969C29.598 23.9702 29.5199 23.6837 29.3636 23.4375C29.2074 23.1913 28.9967 23.0019 28.7315 22.8693C28.4711 22.7367 28.1823 22.6705 27.8651 22.6705C27.5573 22.6705 27.2661 22.7391 26.9915 22.8764C26.7169 23.009 26.492 23.2079 26.3168 23.473C26.1416 23.7334 26.0469 24.0578 26.0327 24.446H23.1349C23.1586 23.4991 23.3859 22.7178 23.8168 22.1023C24.2476 21.482 24.8182 21.0204 25.5284 20.7173C26.2386 20.4096 27.0223 20.2557 27.8793 20.2557C28.8215 20.2557 29.6548 20.4119 30.3793 20.7244C31.1037 21.0322 31.6719 21.4796 32.0838 22.0668C32.4957 22.6539 32.7017 23.3617 32.7017 24.1903C32.7017 24.7443 32.6094 25.2367 32.4247 25.6676C32.2448 26.0937 31.9915 26.4725 31.6648 26.804C31.3381 27.1307 30.9522 27.4266 30.5071 27.6918C30.133 27.9143 29.8253 28.1463 29.5838 28.3878C29.3471 28.6293 29.1695 28.9086 29.0511 29.2259C28.9375 29.5431 28.8783 29.9337 28.8736 30.3977V30.6392H26.1818ZM27.5881 35.1847C27.1146 35.1847 26.7098 35.0189 26.3736 34.6875C26.0421 34.3513 25.8788 33.9489 25.8835 33.4801C25.8788 33.0161 26.0421 32.6184 26.3736 32.2869C26.7098 31.9555 27.1146 31.7898 27.5881 31.7898C28.0379 31.7898 28.4332 31.9555 28.7741 32.2869C29.1151 32.6184 29.2879 33.0161 29.2926 33.4801C29.2879 33.7926 29.205 34.0791 29.044 34.3395C28.8878 34.5952 28.6818 34.8011 28.4261 34.9574C28.1705 35.1089 27.8911 35.1847 27.5881 35.1847Z" fill="white" fill-opacity="0.4"/>
</svg>
