<?xml version="1.0" encoding="utf-8"?>
<!-- Generator: Adobe Illustrator 26.0.3, SVG Export Plug-In . SVG Version: 6.00 Build 0)  -->
<svg version="1.1" id="Слой_1" xmlns="http://www.w3.org/2000/svg" xmlns:xlink="http://www.w3.org/1999/xlink" x="0px" y="0px"
	 viewBox="0 0 420 436" style="enable-background:new 0 0 420 436;" xml:space="preserve">
<style type="text/css">
	.st0{fill:url(#SVGID_1_);}
	.st1{fill:url(#SVGID_00000078744084296482810710000015791321462010932660_);}
	.st2{fill:url(#SVGID_00000163789556518837855750000007092170717956873872_);}
	.st3{fill:url(#SVGID_00000167381977919676744420000017968684251073157042_);}
	.st4{fill:url(#SVGID_00000103963828277471625420000006702032316807131826_);}
	.st5{fill:url(#SVGID_00000176038858865780964290000012662039973452023686_);}
	.st6{fill:url(#SVGID_00000165200807373923836480000012561518809758931624_);}
	.st7{fill:url(#SVGID_00000072267558005973959100000013973655389276117166_);}
	.st8{fill:url(#SVGID_00000096025044326496339250000009720001211748276921_);}
	.st9{fill:url(#SVGID_00000100383327159735988080000003337819089682160027_);}
	.st10{fill:url(#SVGID_00000031904021479897738180000009195298262540181406_);}
	.st11{fill:url(#SVGID_00000043459606805554122280000011591264926075720120_);}
	.st12{fill:url(#SVGID_00000138544992326411469650000011862663382746478773_);}
	.st13{fill:url(#SVGID_00000086652450514952822170000017413351703536248708_);}
	.st14{fill:url(#SVGID_00000038373932137589540700000013877059220646763418_);}
	.st15{fill:url(#SVGID_00000127725501331855397580000005434704770344846761_);}
	.st16{fill:url(#SVGID_00000160895749113408071130000012035479310049149595_);}
	.st17{fill:url(#SVGID_00000124125884053284542650000010586452104124236679_);}
	.st18{fill:url(#SVGID_00000085967616080513155830000006446505250434740909_);}
	.st19{fill:url(#SVGID_00000134249335705656517770000005254619111567770022_);}
	.st20{fill:url(#SVGID_00000103974169626406801100000009214767657197669018_);}
	.st21{fill:url(#SVGID_00000167369043574464948180000006554347169191643834_);}
	.st22{fill:url(#SVGID_00000168089213635871433940000011367730410124176273_);}
	.st23{fill:url(#SVGID_00000023278822540269188810000016028994631407565208_);}
	.st24{fill:url(#SVGID_00000182506004978926321280000004096371273878430606_);}
	.st25{fill:url(#SVGID_00000077312759692999362910000014529504389075178670_);}
	.st26{fill:url(#SVGID_00000127751363816773272760000012456156660232440228_);}
	.st27{fill:url(#SVGID_00000152255114860029945480000005892869477789320342_);}
	.st28{fill:url(#SVGID_00000180344281168218984040000000029281884714187687_);}
	.st29{fill:url(#SVGID_00000016766731232203530740000000925131925583167381_);}
	.st30{fill:url(#SVGID_00000130638462947284002200000003549294430246075798_);}
	.st31{fill:url(#SVGID_00000062871903996007835960000012599029503983780756_);}
	.st32{fill:url(#SVGID_00000135655042320242749050000009499001216832426126_);}
	.st33{fill:url(#SVGID_00000105394350872026368320000001677788044245066157_);}
	.st34{fill:url(#SVGID_00000035518232838029868110000016957746254547336087_);}
	.st35{fill:url(#SVGID_00000114052954836915257050000005121982517616491939_);}
	.st36{fill:url(#SVGID_00000036233892345467785110000013099760568916984453_);}
	.st37{fill:url(#SVGID_00000109750378023939259880000006810398456322881961_);}
	.st38{fill:url(#SVGID_00000142872048024371340610000007643213614659584398_);}
	.st39{fill:url(#SVGID_00000101805898040686818950000017724549674575916928_);}
	.st40{fill:url(#SVGID_00000163767606604189071850000010980416896564232861_);}
	.st41{fill:url(#SVGID_00000161615660641368667130000001564605375985109928_);}
	.st42{fill:url(#SVGID_00000023980993776661979690000009671867331840547483_);}
	.st43{fill:url(#SVGID_00000060019286341988945650000005809260743480152982_);}
	.st44{fill:url(#SVGID_00000170250094364503718850000016539866962900087961_);}
	.st45{fill:url(#SVGID_00000063627605066416959990000008316711975710736260_);}
	.st46{fill:url(#SVGID_00000158029134997771002680000003047538054569299366_);}
	.st47{fill:url(#SVGID_00000091723492776317201480000002613090071484502937_);}
	.st48{fill:url(#SVGID_00000155138909014593508210000001485087970271228577_);}
	.st49{fill:url(#SVGID_00000134217897827584964160000006708353914584618928_);}
	.st50{fill:url(#SVGID_00000103969855673150299940000004314926228998073482_);}
	.st51{fill:url(#SVGID_00000132048956984223647690000000730340412464045221_);}
	.st52{fill:url(#SVGID_00000029750243804167101070000005676718891107978424_);}
	.st53{fill:url(#SVGID_00000145749458900349417030000002547400972056430771_);}
	.st54{fill:url(#SVGID_00000026136966317083403390000005764709541659551628_);}
	.st55{fill:url(#SVGID_00000013171258135167551370000017142143050561363884_);}
	.st56{fill:url(#SVGID_00000173862790889006485890000001727843520309035687_);}
	.st57{fill:url(#SVGID_00000094583068942924419190000006449955493899563673_);}
	.st58{fill:url(#SVGID_00000006704307535377743960000002725512253310019501_);}
	.st59{fill:url(#SVGID_00000039845518412798563640000009358125664478703036_);}
	.st60{fill:url(#SVGID_00000151509824519876175780000004348296079288707717_);}
</style>
<linearGradient id="SVGID_1_" gradientUnits="userSpaceOnUse" x1="-9.094947e-13" y1="446" x2="-8.823673e-13" y2="2.976" gradientTransform="matrix(1 0 0 -1 0 438)">
	<stop  offset="0" style="stop-color:#FFFFFF;stop-opacity:8.000000e-02"/>
	<stop  offset="1" style="stop-color:#FFFFFF;stop-opacity:0"/>
</linearGradient>
<path class="st0" d="M0-8l3.4,8l8.7,0.8L5.6,6.5L7.5,15L0,10.6L-7.5,15l1.9-8.5l-6.5-5.7L-3.4,0L0-8z"/>
<linearGradient id="SVGID_00000023265582256087278110000001755730127607172521_" gradientUnits="userSpaceOnUse" x1="84.0002" y1="446" x2="84.0002" y2="2.976" gradientTransform="matrix(1 0 0 -1 0 438)">
	<stop  offset="0" style="stop-color:#FFFFFF;stop-opacity:8.000000e-02"/>
	<stop  offset="1" style="stop-color:#FFFFFF;stop-opacity:0"/>
</linearGradient>
<path style="fill:url(#SVGID_00000023265582256087278110000001755730127607172521_);" d="M84-8l3.4,8l8.7,0.8l-6.5,5.7l1.9,8.5
	L84,10.6L76.5,15l1.9-8.5l-6.5-5.7L80.6,0L84-8z"/>
<linearGradient id="SVGID_00000015348150392893466080000006493418537433732000_" gradientUnits="userSpaceOnUse" x1="42" y1="446" x2="42" y2="2.976" gradientTransform="matrix(1 0 0 -1 0 438)">
	<stop  offset="0" style="stop-color:#FFFFFF;stop-opacity:8.000000e-02"/>
	<stop  offset="1" style="stop-color:#FFFFFF;stop-opacity:0"/>
</linearGradient>
<path style="fill:url(#SVGID_00000015348150392893466080000006493418537433732000_);" d="M42,26.4l5.5,12.8l13.9,1.3l-10.5,9.2
	L54,63.2l-12-7.1l-12,7.1l3.1-13.6l-10.5-9.2l13.9-1.3L42,26.4z"/>
<linearGradient id="SVGID_00000138571811422818467440000005876412811251505290_" gradientUnits="userSpaceOnUse" x1="84.0002" y1="446" x2="84.0002" y2="2.976" gradientTransform="matrix(1 0 0 -1 0 438)">
	<stop  offset="0" style="stop-color:#FFFFFF;stop-opacity:8.000000e-02"/>
	<stop  offset="1" style="stop-color:#FFFFFF;stop-opacity:0"/>
</linearGradient>
<path style="fill:url(#SVGID_00000138571811422818467440000005876412811251505290_);" d="M87.4,84L84,76l-3.4,8l-8.7,0.8l6.5,5.7
	L76.5,99l7.5-4.4l7.5,4.4l-1.9-8.5l6.5-5.7L87.4,84z"/>
<linearGradient id="SVGID_00000031888004782313222400000008876758568707473584_" gradientUnits="userSpaceOnUse" x1="-9.094947e-13" y1="446" x2="-8.823673e-13" y2="2.976" gradientTransform="matrix(1 0 0 -1 0 438)">
	<stop  offset="0" style="stop-color:#FFFFFF;stop-opacity:8.000000e-02"/>
	<stop  offset="1" style="stop-color:#FFFFFF;stop-opacity:0"/>
</linearGradient>
<path style="fill:url(#SVGID_00000031888004782313222400000008876758568707473584_);" d="M3.4,84L0,76l-3.4,8l-8.7,0.8l6.5,5.7
	L-7.5,99L0,94.6L7.5,99l-1.9-8.5l6.5-5.7L3.4,84z"/>
<linearGradient id="SVGID_00000160176220440414517950000011683726138252512931_" gradientUnits="userSpaceOnUse" x1="125.9996" y1="446" x2="125.9996" y2="2.976" gradientTransform="matrix(1 0 0 -1 0 438)">
	<stop  offset="0" style="stop-color:#FFFFFF;stop-opacity:8.000000e-02"/>
	<stop  offset="1" style="stop-color:#FFFFFF;stop-opacity:0"/>
</linearGradient>
<path style="fill:url(#SVGID_00000160176220440414517950000011683726138252512931_);" d="M126,26.4l5.5,12.8l13.9,1.3l-10.5,9.2
	l3.1,13.6l-12-7.1l-12,7.1l3.1-13.6l-10.5-9.2l13.9-1.3L126,26.4z"/>
<linearGradient id="SVGID_00000095334742882506373110000015026906205822586762_" gradientUnits="userSpaceOnUse" x1="168.0002" y1="446" x2="168.0002" y2="2.976" gradientTransform="matrix(1 0 0 -1 0 438)">
	<stop  offset="0" style="stop-color:#FFFFFF;stop-opacity:8.000000e-02"/>
	<stop  offset="1" style="stop-color:#FFFFFF;stop-opacity:0"/>
</linearGradient>
<path style="fill:url(#SVGID_00000095334742882506373110000015026906205822586762_);" d="M171.4,0L168-8l-3.4,8l-8.7,0.8l6.5,5.7
	l-1.9,8.5l7.5-4.4l7.5,4.4l-1.9-8.5l6.5-5.7L171.4,0z"/>
<linearGradient id="SVGID_00000106118962829070081010000009528151473255400089_" gradientUnits="userSpaceOnUse" x1="168.0002" y1="446" x2="168.0002" y2="2.976" gradientTransform="matrix(1 0 0 -1 0 438)">
	<stop  offset="0" style="stop-color:#FFFFFF;stop-opacity:8.000000e-02"/>
	<stop  offset="1" style="stop-color:#FFFFFF;stop-opacity:0"/>
</linearGradient>
<path style="fill:url(#SVGID_00000106118962829070081010000009528151473255400089_);" d="M168,76l3.4,8l8.7,0.8l-6.5,5.7l1.9,8.5
	l-7.5-4.4l-7.5,4.4l1.9-8.5l-6.5-5.7l8.7-0.8L168,76z"/>
<linearGradient id="SVGID_00000182505253981935345000000009380960329699162769_" gradientUnits="userSpaceOnUse" x1="209.9996" y1="446" x2="209.9996" y2="2.976" gradientTransform="matrix(1 0 0 -1 0 438)">
	<stop  offset="0" style="stop-color:#FFFFFF;stop-opacity:8.000000e-02"/>
	<stop  offset="1" style="stop-color:#FFFFFF;stop-opacity:0"/>
</linearGradient>
<path style="fill:url(#SVGID_00000182505253981935345000000009380960329699162769_);" d="M215.5,39.1L210,26.4l-5.5,12.8l-13.9,1.3
	l10.5,9.2L198,63.2l12-7.1l12,7.1l-3.1-13.6l10.5-9.2L215.5,39.1z"/>
<linearGradient id="SVGID_00000018197730396021889730000011189333323924035242_" gradientUnits="userSpaceOnUse" x1="252.0002" y1="446" x2="252.0002" y2="2.976" gradientTransform="matrix(1 0 0 -1 0 438)">
	<stop  offset="0" style="stop-color:#FFFFFF;stop-opacity:8.000000e-02"/>
	<stop  offset="1" style="stop-color:#FFFFFF;stop-opacity:0"/>
</linearGradient>
<path style="fill:url(#SVGID_00000018197730396021889730000011189333323924035242_);" d="M252-8l3.4,8l8.7,0.8l-6.5,5.7l1.9,8.5
	l-7.5-4.4l-7.5,4.4l1.9-8.5l-6.5-5.7l8.7-0.8L252-8z"/>
<linearGradient id="SVGID_00000092458642202616930500000006259412839649813634_" gradientUnits="userSpaceOnUse" x1="252.0002" y1="446" x2="252.0002" y2="2.976" gradientTransform="matrix(1 0 0 -1 0 438)">
	<stop  offset="0" style="stop-color:#FFFFFF;stop-opacity:8.000000e-02"/>
	<stop  offset="1" style="stop-color:#FFFFFF;stop-opacity:0"/>
</linearGradient>
<path style="fill:url(#SVGID_00000092458642202616930500000006259412839649813634_);" d="M255.4,84l-3.4-8l-3.4,8l-8.7,0.8l6.5,5.7
	l-1.9,8.5l7.5-4.4l7.5,4.4l-1.9-8.5l6.5-5.7L255.4,84z"/>
<linearGradient id="SVGID_00000011023670512137261090000006602807925438159526_" gradientUnits="userSpaceOnUse" x1="293.9997" y1="446" x2="293.9997" y2="2.976" gradientTransform="matrix(1 0 0 -1 0 438)">
	<stop  offset="0" style="stop-color:#FFFFFF;stop-opacity:8.000000e-02"/>
	<stop  offset="1" style="stop-color:#FFFFFF;stop-opacity:0"/>
</linearGradient>
<path style="fill:url(#SVGID_00000011023670512137261090000006602807925438159526_);" d="M294,26.4l5.5,12.8l13.9,1.3l-10.5,9.2
	l3.1,13.6l-12-7.1l-12,7.1l3.1-13.6l-10.5-9.2l13.9-1.3L294,26.4z"/>
<linearGradient id="SVGID_00000043426127908668804440000016172256680348127396_" gradientUnits="userSpaceOnUse" x1="336.0002" y1="446" x2="336.0002" y2="2.976" gradientTransform="matrix(1 0 0 -1 0 438)">
	<stop  offset="0" style="stop-color:#FFFFFF;stop-opacity:8.000000e-02"/>
	<stop  offset="1" style="stop-color:#FFFFFF;stop-opacity:0"/>
</linearGradient>
<path style="fill:url(#SVGID_00000043426127908668804440000016172256680348127396_);" d="M339.4,0L336-8l-3.4,8l-8.7,0.8l6.5,5.7
	l-1.9,8.5l7.5-4.4l7.5,4.4l-1.9-8.5l6.5-5.7L339.4,0z"/>
<linearGradient id="SVGID_00000054987506204067496480000003084734418015148976_" gradientUnits="userSpaceOnUse" x1="336.0002" y1="446" x2="336.0002" y2="2.976" gradientTransform="matrix(1 0 0 -1 0 438)">
	<stop  offset="0" style="stop-color:#FFFFFF;stop-opacity:8.000000e-02"/>
	<stop  offset="1" style="stop-color:#FFFFFF;stop-opacity:0"/>
</linearGradient>
<path style="fill:url(#SVGID_00000054987506204067496480000003084734418015148976_);" d="M336,76l3.4,8l8.7,0.8l-6.5,5.7l1.9,8.5
	l-7.5-4.4l-7.5,4.4l1.9-8.5l-6.5-5.7l8.7-0.8L336,76z"/>
<linearGradient id="SVGID_00000094600636246474842370000004351844534064065409_" gradientUnits="userSpaceOnUse" x1="377.9997" y1="446" x2="377.9997" y2="2.976" gradientTransform="matrix(1 0 0 -1 0 438)">
	<stop  offset="0" style="stop-color:#FFFFFF;stop-opacity:8.000000e-02"/>
	<stop  offset="1" style="stop-color:#FFFFFF;stop-opacity:0"/>
</linearGradient>
<path style="fill:url(#SVGID_00000094600636246474842370000004351844534064065409_);" d="M383.5,39.1L378,26.4l-5.5,12.8l-13.9,1.3
	l10.5,9.2L366,63.2l12-7.1l12,7.1l-3.1-13.6l10.5-9.2L383.5,39.1z"/>
<linearGradient id="SVGID_00000122678078611242404140000003588493412799002251_" gradientUnits="userSpaceOnUse" x1="420.0002" y1="446" x2="420.0002" y2="2.976" gradientTransform="matrix(1 0 0 -1 0 438)">
	<stop  offset="0" style="stop-color:#FFFFFF;stop-opacity:8.000000e-02"/>
	<stop  offset="1" style="stop-color:#FFFFFF;stop-opacity:0"/>
</linearGradient>
<path style="fill:url(#SVGID_00000122678078611242404140000003588493412799002251_);" d="M420-8l3.4,8l8.7,0.8l-6.5,5.7l1.9,8.5
	l-7.5-4.4l-7.5,4.4l1.9-8.5l-6.5-5.7l8.7-0.8L420-8z"/>
<linearGradient id="SVGID_00000051381826124556378340000006640045358094067634_" gradientUnits="userSpaceOnUse" x1="420.0002" y1="446" x2="420.0002" y2="2.976" gradientTransform="matrix(1 0 0 -1 0 438)">
	<stop  offset="0" style="stop-color:#FFFFFF;stop-opacity:8.000000e-02"/>
	<stop  offset="1" style="stop-color:#FFFFFF;stop-opacity:0"/>
</linearGradient>
<path style="fill:url(#SVGID_00000051381826124556378340000006640045358094067634_);" d="M423.4,84l-3.4-8l-3.4,8l-8.7,0.8l6.5,5.7
	l-1.9,8.5l7.5-4.4l7.5,4.4l-1.9-8.5l6.5-5.7L423.4,84z"/>
<linearGradient id="SVGID_00000084494618265980552900000003721028212330852763_" gradientUnits="userSpaceOnUse" x1="42" y1="446" x2="42" y2="2.976" gradientTransform="matrix(1 0 0 -1 0 438)">
	<stop  offset="0" style="stop-color:#FFFFFF;stop-opacity:8.000000e-02"/>
	<stop  offset="1" style="stop-color:#FFFFFF;stop-opacity:0"/>
</linearGradient>
<path style="fill:url(#SVGID_00000084494618265980552900000003721028212330852763_);" d="M42,110.4l5.5,12.8l13.9,1.3l-10.5,9.2
	l3.1,13.6l-12-7.1l-12,7.1l3.1-13.6l-10.5-9.2l13.9-1.3L42,110.4z"/>
<linearGradient id="SVGID_00000071545099579782632690000009563173090500580789_" gradientUnits="userSpaceOnUse" x1="84.0002" y1="446" x2="84.0002" y2="2.976" gradientTransform="matrix(1 0 0 -1 0 438)">
	<stop  offset="0" style="stop-color:#FFFFFF;stop-opacity:8.000000e-02"/>
	<stop  offset="1" style="stop-color:#FFFFFF;stop-opacity:0"/>
</linearGradient>
<path style="fill:url(#SVGID_00000071545099579782632690000009563173090500580789_);" d="M84,160l3.4,8l8.7,0.8l-6.5,5.7l1.9,8.5
	l-7.5-4.4l-7.5,4.4l1.9-8.5l-6.5-5.7l8.7-0.8L84,160z"/>
<linearGradient id="SVGID_00000082353158919654927710000003709429614724958896_" gradientUnits="userSpaceOnUse" x1="-9.094947e-13" y1="446" x2="-8.823673e-13" y2="2.976" gradientTransform="matrix(1 0 0 -1 0 438)">
	<stop  offset="0" style="stop-color:#FFFFFF;stop-opacity:8.000000e-02"/>
	<stop  offset="1" style="stop-color:#FFFFFF;stop-opacity:0"/>
</linearGradient>
<path style="fill:url(#SVGID_00000082353158919654927710000003709429614724958896_);" d="M0,160l3.4,8l8.7,0.8l-6.5,5.7l1.9,8.5
	L0,178.6l-7.5,4.4l1.9-8.5l-6.5-5.7l8.7-0.8L0,160z"/>
<linearGradient id="SVGID_00000007415175210106980440000016683714845895056061_" gradientUnits="userSpaceOnUse" x1="125.9996" y1="446" x2="125.9996" y2="2.976" gradientTransform="matrix(1 0 0 -1 0 438)">
	<stop  offset="0" style="stop-color:#FFFFFF;stop-opacity:8.000000e-02"/>
	<stop  offset="1" style="stop-color:#FFFFFF;stop-opacity:0"/>
</linearGradient>
<path style="fill:url(#SVGID_00000007415175210106980440000016683714845895056061_);" d="M131.5,123.1l-5.5-12.8l-5.5,12.8
	l-13.9,1.3l10.5,9.2l-3.1,13.6l12-7.1l12,7.1l-3.1-13.6l10.5-9.2L131.5,123.1z"/>
<linearGradient id="SVGID_00000173136033342361783140000009481392040820969365_" gradientUnits="userSpaceOnUse" x1="168.0002" y1="446" x2="168.0002" y2="2.976" gradientTransform="matrix(1 0 0 -1 0 438)">
	<stop  offset="0" style="stop-color:#FFFFFF;stop-opacity:8.000000e-02"/>
	<stop  offset="1" style="stop-color:#FFFFFF;stop-opacity:0"/>
</linearGradient>
<path style="fill:url(#SVGID_00000173136033342361783140000009481392040820969365_);" d="M171.4,168l-3.4-8l-3.4,8l-8.7,0.8l6.5,5.7
	l-1.9,8.5l7.5-4.4l7.5,4.4l-1.9-8.5l6.5-5.7L171.4,168z"/>
<linearGradient id="SVGID_00000069380147536255778850000005461641699868007081_" gradientUnits="userSpaceOnUse" x1="209.9996" y1="446" x2="209.9996" y2="2.976" gradientTransform="matrix(1 0 0 -1 0 438)">
	<stop  offset="0" style="stop-color:#FFFFFF;stop-opacity:8.000000e-02"/>
	<stop  offset="1" style="stop-color:#FFFFFF;stop-opacity:0"/>
</linearGradient>
<path style="fill:url(#SVGID_00000069380147536255778850000005461641699868007081_);" d="M210,110.4l5.5,12.8l13.9,1.3l-10.5,9.2
	l3.1,13.6l-12-7.1l-12,7.1l3.1-13.6l-10.5-9.2l13.9-1.3L210,110.4z"/>
<linearGradient id="SVGID_00000017492694024764897090000011874218314404639418_" gradientUnits="userSpaceOnUse" x1="252.0002" y1="446" x2="252.0002" y2="2.976" gradientTransform="matrix(1 0 0 -1 0 438)">
	<stop  offset="0" style="stop-color:#FFFFFF;stop-opacity:8.000000e-02"/>
	<stop  offset="1" style="stop-color:#FFFFFF;stop-opacity:0"/>
</linearGradient>
<path style="fill:url(#SVGID_00000017492694024764897090000011874218314404639418_);" d="M252,160l3.4,8l8.7,0.8l-6.5,5.7l1.9,8.5
	l-7.5-4.4l-7.5,4.4l1.9-8.5l-6.5-5.7l8.7-0.8L252,160z"/>
<linearGradient id="SVGID_00000152226756457328599270000012397808060918878626_" gradientUnits="userSpaceOnUse" x1="293.9997" y1="446" x2="293.9997" y2="2.976" gradientTransform="matrix(1 0 0 -1 0 438)">
	<stop  offset="0" style="stop-color:#FFFFFF;stop-opacity:8.000000e-02"/>
	<stop  offset="1" style="stop-color:#FFFFFF;stop-opacity:0"/>
</linearGradient>
<path style="fill:url(#SVGID_00000152226756457328599270000012397808060918878626_);" d="M299.5,123.1l-5.5-12.8l-5.5,12.8
	l-13.9,1.3l10.5,9.2l-3.1,13.6l12-7.1l12,7.1l-3.1-13.6l10.5-9.2L299.5,123.1z"/>
<linearGradient id="SVGID_00000087372774729481387380000007442363806796085643_" gradientUnits="userSpaceOnUse" x1="336.0002" y1="446" x2="336.0002" y2="2.976" gradientTransform="matrix(1 0 0 -1 0 438)">
	<stop  offset="0" style="stop-color:#FFFFFF;stop-opacity:8.000000e-02"/>
	<stop  offset="1" style="stop-color:#FFFFFF;stop-opacity:0"/>
</linearGradient>
<path style="fill:url(#SVGID_00000087372774729481387380000007442363806796085643_);" d="M339.4,168l-3.4-8l-3.4,8l-8.7,0.8l6.5,5.7
	l-1.9,8.5l7.5-4.4l7.5,4.4l-1.9-8.5l6.5-5.7L339.4,168z"/>
<linearGradient id="SVGID_00000165228358131269300960000007375120649526629034_" gradientUnits="userSpaceOnUse" x1="377.9997" y1="446" x2="377.9997" y2="2.976" gradientTransform="matrix(1 0 0 -1 0 438)">
	<stop  offset="0" style="stop-color:#FFFFFF;stop-opacity:8.000000e-02"/>
	<stop  offset="1" style="stop-color:#FFFFFF;stop-opacity:0"/>
</linearGradient>
<path style="fill:url(#SVGID_00000165228358131269300960000007375120649526629034_);" d="M378,110.4l5.5,12.8l13.9,1.3l-10.5,9.2
	l3.1,13.6l-12-7.1l-12,7.1l3.1-13.6l-10.5-9.2l13.9-1.3L378,110.4z"/>
<linearGradient id="SVGID_00000048502522053216089620000002631007670445904271_" gradientUnits="userSpaceOnUse" x1="420.0002" y1="446" x2="420.0002" y2="2.976" gradientTransform="matrix(1 0 0 -1 0 438)">
	<stop  offset="0" style="stop-color:#FFFFFF;stop-opacity:8.000000e-02"/>
	<stop  offset="1" style="stop-color:#FFFFFF;stop-opacity:0"/>
</linearGradient>
<path style="fill:url(#SVGID_00000048502522053216089620000002631007670445904271_);" d="M420,160l3.4,8l8.7,0.8l-6.5,5.7l1.9,8.5
	l-7.5-4.4l-7.5,4.4l1.9-8.5l-6.5-5.7l8.7-0.8L420,160z"/>
<linearGradient id="SVGID_00000157290148158003977850000009048515243034826125_" gradientUnits="userSpaceOnUse" x1="42" y1="446" x2="42" y2="2.976" gradientTransform="matrix(1 0 0 -1 0 438)">
	<stop  offset="0" style="stop-color:#FFFFFF;stop-opacity:8.000000e-02"/>
	<stop  offset="1" style="stop-color:#FFFFFF;stop-opacity:0"/>
</linearGradient>
<path style="fill:url(#SVGID_00000157290148158003977850000009048515243034826125_);" d="M47.5,207.1L42,194.4l-5.5,12.8l-13.9,1.3
	l10.5,9.2L30,231.2l12-7.1l12,7.1l-3.1-13.6l10.5-9.2L47.5,207.1z"/>
<linearGradient id="SVGID_00000041990527694925393290000016768981894036208306_" gradientUnits="userSpaceOnUse" x1="84.0002" y1="446" x2="84.0002" y2="2.976" gradientTransform="matrix(1 0 0 -1 0 438)">
	<stop  offset="0" style="stop-color:#FFFFFF;stop-opacity:8.000000e-02"/>
	<stop  offset="1" style="stop-color:#FFFFFF;stop-opacity:0"/>
</linearGradient>
<path style="fill:url(#SVGID_00000041990527694925393290000016768981894036208306_);" d="M87.4,252l-3.4-8l-3.4,8l-8.7,0.8l6.5,5.7
	l-1.9,8.5l7.5-4.4l7.5,4.4l-1.9-8.5l6.5-5.7L87.4,252z"/>
<linearGradient id="SVGID_00000031190083439596111180000016688802487863605162_" gradientUnits="userSpaceOnUse" x1="-9.094947e-13" y1="446" x2="-8.823673e-13" y2="2.976" gradientTransform="matrix(1 0 0 -1 0 438)">
	<stop  offset="0" style="stop-color:#FFFFFF;stop-opacity:8.000000e-02"/>
	<stop  offset="1" style="stop-color:#FFFFFF;stop-opacity:0"/>
</linearGradient>
<path style="fill:url(#SVGID_00000031190083439596111180000016688802487863605162_);" d="M3.4,252L0,244l-3.4,8l-8.7,0.8l6.5,5.7
	l-1.9,8.5l7.5-4.4l7.5,4.4l-1.9-8.5l6.5-5.7L3.4,252z"/>
<linearGradient id="SVGID_00000029753715232189816270000006276838803101452468_" gradientUnits="userSpaceOnUse" x1="125.9996" y1="446" x2="125.9996" y2="2.976" gradientTransform="matrix(1 0 0 -1 0 438)">
	<stop  offset="0" style="stop-color:#FFFFFF;stop-opacity:8.000000e-02"/>
	<stop  offset="1" style="stop-color:#FFFFFF;stop-opacity:0"/>
</linearGradient>
<path style="fill:url(#SVGID_00000029753715232189816270000006276838803101452468_);" d="M126,194.4l5.5,12.8l13.9,1.3l-10.5,9.2
	l3.1,13.6l-12-7.1l-12,7.1l3.1-13.6l-10.5-9.2l13.9-1.3L126,194.4z"/>
<linearGradient id="SVGID_00000150784203729443800940000004294567041331489179_" gradientUnits="userSpaceOnUse" x1="168.0002" y1="446" x2="168.0002" y2="2.976" gradientTransform="matrix(1 0 0 -1 0 438)">
	<stop  offset="0" style="stop-color:#FFFFFF;stop-opacity:8.000000e-02"/>
	<stop  offset="1" style="stop-color:#FFFFFF;stop-opacity:0"/>
</linearGradient>
<path style="fill:url(#SVGID_00000150784203729443800940000004294567041331489179_);" d="M168,244l3.4,8l8.7,0.8l-6.5,5.7l1.9,8.5
	l-7.5-4.4l-7.5,4.4l1.9-8.5l-6.5-5.7l8.7-0.8L168,244z"/>
<linearGradient id="SVGID_00000113315247319582061970000009600867583450501014_" gradientUnits="userSpaceOnUse" x1="209.9996" y1="446" x2="209.9996" y2="2.976" gradientTransform="matrix(1 0 0 -1 0 438)">
	<stop  offset="0" style="stop-color:#FFFFFF;stop-opacity:8.000000e-02"/>
	<stop  offset="1" style="stop-color:#FFFFFF;stop-opacity:0"/>
</linearGradient>
<path style="fill:url(#SVGID_00000113315247319582061970000009600867583450501014_);" d="M215.5,207.1l-5.5-12.8l-5.5,12.8
	l-13.9,1.3l10.5,9.2l-3.1,13.6l12-7.1l12,7.1l-3.1-13.6l10.5-9.2L215.5,207.1z"/>
<linearGradient id="SVGID_00000046332862601335262690000001230541296484776124_" gradientUnits="userSpaceOnUse" x1="252.0002" y1="446" x2="252.0002" y2="2.976" gradientTransform="matrix(1 0 0 -1 0 438)">
	<stop  offset="0" style="stop-color:#FFFFFF;stop-opacity:8.000000e-02"/>
	<stop  offset="1" style="stop-color:#FFFFFF;stop-opacity:0"/>
</linearGradient>
<path style="fill:url(#SVGID_00000046332862601335262690000001230541296484776124_);" d="M255.4,252l-3.4-8l-3.4,8l-8.7,0.8l6.5,5.7
	l-1.9,8.5l7.5-4.4l7.5,4.4l-1.9-8.5l6.5-5.7L255.4,252z"/>
<linearGradient id="SVGID_00000143585237323918271050000006840951732611876495_" gradientUnits="userSpaceOnUse" x1="293.9997" y1="446" x2="293.9997" y2="2.976" gradientTransform="matrix(1 0 0 -1 0 438)">
	<stop  offset="0" style="stop-color:#FFFFFF;stop-opacity:8.000000e-02"/>
	<stop  offset="1" style="stop-color:#FFFFFF;stop-opacity:0"/>
</linearGradient>
<path style="fill:url(#SVGID_00000143585237323918271050000006840951732611876495_);" d="M294,194.4l5.5,12.8l13.9,1.3l-10.5,9.2
	l3.1,13.6l-12-7.1l-12,7.1l3.1-13.6l-10.5-9.2l13.9-1.3L294,194.4z"/>
<linearGradient id="SVGID_00000121266130397820172320000004632200458057814154_" gradientUnits="userSpaceOnUse" x1="336.0002" y1="446" x2="336.0002" y2="2.976" gradientTransform="matrix(1 0 0 -1 0 438)">
	<stop  offset="0" style="stop-color:#FFFFFF;stop-opacity:8.000000e-02"/>
	<stop  offset="1" style="stop-color:#FFFFFF;stop-opacity:0"/>
</linearGradient>
<path style="fill:url(#SVGID_00000121266130397820172320000004632200458057814154_);" d="M336,244l3.4,8l8.7,0.8l-6.5,5.7l1.9,8.5
	l-7.5-4.4l-7.5,4.4l1.9-8.5l-6.5-5.7l8.7-0.8L336,244z"/>
<linearGradient id="SVGID_00000116918713560776902580000013382660447670432683_" gradientUnits="userSpaceOnUse" x1="377.9997" y1="446" x2="377.9997" y2="2.976" gradientTransform="matrix(1 0 0 -1 0 438)">
	<stop  offset="0" style="stop-color:#FFFFFF;stop-opacity:8.000000e-02"/>
	<stop  offset="1" style="stop-color:#FFFFFF;stop-opacity:0"/>
</linearGradient>
<path style="fill:url(#SVGID_00000116918713560776902580000013382660447670432683_);" d="M383.5,207.1l-5.5-12.8l-5.5,12.8
	l-13.9,1.3l10.5,9.2l-3.1,13.6l12-7.1l12,7.1l-3.1-13.6l10.5-9.2L383.5,207.1z"/>
<linearGradient id="SVGID_00000145016481910120412330000005663657285585533869_" gradientUnits="userSpaceOnUse" x1="420.0002" y1="446" x2="420.0002" y2="2.976" gradientTransform="matrix(1 0 0 -1 0 438)">
	<stop  offset="0" style="stop-color:#FFFFFF;stop-opacity:8.000000e-02"/>
	<stop  offset="1" style="stop-color:#FFFFFF;stop-opacity:0"/>
</linearGradient>
<path style="fill:url(#SVGID_00000145016481910120412330000005663657285585533869_);" d="M423.4,252l-3.4-8l-3.4,8l-8.7,0.8l6.5,5.7
	l-1.9,8.5l7.5-4.4l7.5,4.4l-1.9-8.5l6.5-5.7L423.4,252z"/>
<linearGradient id="SVGID_00000131349748281231507530000004194084934086778544_" gradientUnits="userSpaceOnUse" x1="42" y1="446" x2="42" y2="2.976" gradientTransform="matrix(1 0 0 -1 0 438)">
	<stop  offset="0" style="stop-color:#FFFFFF;stop-opacity:8.000000e-02"/>
	<stop  offset="1" style="stop-color:#FFFFFF;stop-opacity:0"/>
</linearGradient>
<path style="fill:url(#SVGID_00000131349748281231507530000004194084934086778544_);" d="M42,278.4l5.5,12.8l13.9,1.3l-10.5,9.2
	l3.1,13.6l-12-7.1l-12,7.1l3.1-13.6l-10.5-9.2l13.9-1.3L42,278.4z"/>
<linearGradient id="SVGID_00000042012934248405778800000014394805242841896618_" gradientUnits="userSpaceOnUse" x1="84.0002" y1="446" x2="84.0002" y2="2.976" gradientTransform="matrix(1 0 0 -1 0 438)">
	<stop  offset="0" style="stop-color:#FFFFFF;stop-opacity:8.000000e-02"/>
	<stop  offset="1" style="stop-color:#FFFFFF;stop-opacity:0"/>
</linearGradient>
<path style="fill:url(#SVGID_00000042012934248405778800000014394805242841896618_);" d="M84,328l3.4,8l8.7,0.8l-6.5,5.7l1.9,8.5
	l-7.5-4.4l-7.5,4.4l1.9-8.5l-6.5-5.7l8.7-0.8L84,328z"/>
<linearGradient id="SVGID_00000086693873099841378890000015591860232829808798_" gradientUnits="userSpaceOnUse" x1="-9.094947e-13" y1="446" x2="-8.823673e-13" y2="2.976" gradientTransform="matrix(1 0 0 -1 0 438)">
	<stop  offset="0" style="stop-color:#FFFFFF;stop-opacity:8.000000e-02"/>
	<stop  offset="1" style="stop-color:#FFFFFF;stop-opacity:0"/>
</linearGradient>
<path style="fill:url(#SVGID_00000086693873099841378890000015591860232829808798_);" d="M0,328l3.4,8l8.7,0.8l-6.5,5.7l1.9,8.5
	L0,346.6l-7.5,4.4l1.9-8.5l-6.5-5.7l8.7-0.8L0,328z"/>
<linearGradient id="SVGID_00000025441087080340996400000007906852518118080700_" gradientUnits="userSpaceOnUse" x1="125.9996" y1="446" x2="125.9996" y2="2.976" gradientTransform="matrix(1 0 0 -1 0 438)">
	<stop  offset="0" style="stop-color:#FFFFFF;stop-opacity:8.000000e-02"/>
	<stop  offset="1" style="stop-color:#FFFFFF;stop-opacity:0"/>
</linearGradient>
<path style="fill:url(#SVGID_00000025441087080340996400000007906852518118080700_);" d="M131.5,291.1l-5.5-12.8l-5.5,12.8
	l-13.9,1.3l10.5,9.2l-3.1,13.6l12-7.1l12,7.1l-3.1-13.6l10.5-9.2L131.5,291.1z"/>
<linearGradient id="SVGID_00000008134975610986099850000000734437578972967073_" gradientUnits="userSpaceOnUse" x1="168.0002" y1="446" x2="168.0002" y2="2.976" gradientTransform="matrix(1 0 0 -1 0 438)">
	<stop  offset="0" style="stop-color:#FFFFFF;stop-opacity:8.000000e-02"/>
	<stop  offset="1" style="stop-color:#FFFFFF;stop-opacity:0"/>
</linearGradient>
<path style="fill:url(#SVGID_00000008134975610986099850000000734437578972967073_);" d="M171.4,336l-3.4-8l-3.4,8l-8.7,0.8l6.5,5.7
	l-1.9,8.5l7.5-4.4l7.5,4.4l-1.9-8.5l6.5-5.7L171.4,336z"/>
<linearGradient id="SVGID_00000177470383187685781000000003044302793519534013_" gradientUnits="userSpaceOnUse" x1="209.9996" y1="446" x2="209.9996" y2="2.976" gradientTransform="matrix(1 0 0 -1 0 438)">
	<stop  offset="0" style="stop-color:#FFFFFF;stop-opacity:8.000000e-02"/>
	<stop  offset="1" style="stop-color:#FFFFFF;stop-opacity:0"/>
</linearGradient>
<path style="fill:url(#SVGID_00000177470383187685781000000003044302793519534013_);" d="M210,278.4l5.5,12.8l13.9,1.3l-10.5,9.2
	l3.1,13.6l-12-7.1l-12,7.1l3.1-13.6l-10.5-9.2l13.9-1.3L210,278.4z"/>
<linearGradient id="SVGID_00000107588138553664031680000004140503855059300011_" gradientUnits="userSpaceOnUse" x1="252.0002" y1="446" x2="252.0002" y2="2.976" gradientTransform="matrix(1 0 0 -1 0 438)">
	<stop  offset="0" style="stop-color:#FFFFFF;stop-opacity:8.000000e-02"/>
	<stop  offset="1" style="stop-color:#FFFFFF;stop-opacity:0"/>
</linearGradient>
<path style="fill:url(#SVGID_00000107588138553664031680000004140503855059300011_);" d="M252,328l3.4,8l8.7,0.8l-6.5,5.7l1.9,8.5
	l-7.5-4.4l-7.5,4.4l1.9-8.5l-6.5-5.7l8.7-0.8L252,328z"/>
<linearGradient id="SVGID_00000107579245487175930960000018258580804130730896_" gradientUnits="userSpaceOnUse" x1="293.9997" y1="446" x2="293.9997" y2="2.976" gradientTransform="matrix(1 0 0 -1 0 438)">
	<stop  offset="0" style="stop-color:#FFFFFF;stop-opacity:8.000000e-02"/>
	<stop  offset="1" style="stop-color:#FFFFFF;stop-opacity:0"/>
</linearGradient>
<path style="fill:url(#SVGID_00000107579245487175930960000018258580804130730896_);" d="M299.5,291.1l-5.5-12.8l-5.5,12.8
	l-13.9,1.3l10.5,9.2l-3.1,13.6l12-7.1l12,7.1l-3.1-13.6l10.5-9.2L299.5,291.1z"/>
<linearGradient id="SVGID_00000147204576842931571580000003604930080886705797_" gradientUnits="userSpaceOnUse" x1="336.0002" y1="446" x2="336.0002" y2="2.976" gradientTransform="matrix(1 0 0 -1 0 438)">
	<stop  offset="0" style="stop-color:#FFFFFF;stop-opacity:8.000000e-02"/>
	<stop  offset="1" style="stop-color:#FFFFFF;stop-opacity:0"/>
</linearGradient>
<path style="fill:url(#SVGID_00000147204576842931571580000003604930080886705797_);" d="M339.4,336l-3.4-8l-3.4,8l-8.7,0.8l6.5,5.7
	l-1.9,8.5l7.5-4.4l7.5,4.4l-1.9-8.5l6.5-5.7L339.4,336z"/>
<linearGradient id="SVGID_00000155144051610768844340000007869891620474247087_" gradientUnits="userSpaceOnUse" x1="377.9997" y1="446" x2="377.9997" y2="2.976" gradientTransform="matrix(1 0 0 -1 0 438)">
	<stop  offset="0" style="stop-color:#FFFFFF;stop-opacity:8.000000e-02"/>
	<stop  offset="1" style="stop-color:#FFFFFF;stop-opacity:0"/>
</linearGradient>
<path style="fill:url(#SVGID_00000155144051610768844340000007869891620474247087_);" d="M378,278.4l5.5,12.8l13.9,1.3l-10.5,9.2
	l3.1,13.6l-12-7.1l-12,7.1l3.1-13.6l-10.5-9.2l13.9-1.3L378,278.4z"/>
<linearGradient id="SVGID_00000015314289686490862730000009158519027722412191_" gradientUnits="userSpaceOnUse" x1="420.0002" y1="446" x2="420.0002" y2="2.976" gradientTransform="matrix(1 0 0 -1 0 438)">
	<stop  offset="0" style="stop-color:#FFFFFF;stop-opacity:8.000000e-02"/>
	<stop  offset="1" style="stop-color:#FFFFFF;stop-opacity:0"/>
</linearGradient>
<path style="fill:url(#SVGID_00000015314289686490862730000009158519027722412191_);" d="M420,328l3.4,8l8.7,0.8l-6.5,5.7l1.9,8.5
	l-7.5-4.4l-7.5,4.4l1.9-8.5l-6.5-5.7l8.7-0.8L420,328z"/>
<linearGradient id="SVGID_00000124156111711277086760000004567707490636566918_" gradientUnits="userSpaceOnUse" x1="42" y1="446" x2="42" y2="2.976" gradientTransform="matrix(1 0 0 -1 0 438)">
	<stop  offset="0" style="stop-color:#FFFFFF;stop-opacity:8.000000e-02"/>
	<stop  offset="1" style="stop-color:#FFFFFF;stop-opacity:0"/>
</linearGradient>
<path style="fill:url(#SVGID_00000124156111711277086760000004567707490636566918_);" d="M47.5,375.1L42,362.4l-5.5,12.8l-13.9,1.3
	l10.5,9.2L30,399.2l12-7.1l12,7.1l-3.1-13.6l10.5-9.2L47.5,375.1z"/>
<linearGradient id="SVGID_00000101783736908458819860000015149313416655217540_" gradientUnits="userSpaceOnUse" x1="84.0002" y1="446" x2="84.0002" y2="2.976" gradientTransform="matrix(1 0 0 -1 0 438)">
	<stop  offset="0" style="stop-color:#FFFFFF;stop-opacity:8.000000e-02"/>
	<stop  offset="1" style="stop-color:#FFFFFF;stop-opacity:0"/>
</linearGradient>
<path style="fill:url(#SVGID_00000101783736908458819860000015149313416655217540_);" d="M87.4,420l-3.4-8l-3.4,8l-8.7,0.8l6.5,5.7
	l-1.9,8.5l7.5-4.4l7.5,4.4l-1.9-8.5l6.5-5.7L87.4,420z"/>
<linearGradient id="SVGID_00000120520736069278003550000010619228911676921519_" gradientUnits="userSpaceOnUse" x1="-9.094947e-13" y1="446" x2="-8.823673e-13" y2="2.976" gradientTransform="matrix(1 0 0 -1 0 438)">
	<stop  offset="0" style="stop-color:#FFFFFF;stop-opacity:8.000000e-02"/>
	<stop  offset="1" style="stop-color:#FFFFFF;stop-opacity:0"/>
</linearGradient>
<path style="fill:url(#SVGID_00000120520736069278003550000010619228911676921519_);" d="M3.4,420L0,412l-3.4,8l-8.7,0.8l6.5,5.7
	l-1.9,8.5l7.5-4.4l7.5,4.4l-1.9-8.5l6.5-5.7L3.4,420z"/>
<linearGradient id="SVGID_00000078765286361417876040000011494879670821669770_" gradientUnits="userSpaceOnUse" x1="125.9996" y1="446" x2="125.9996" y2="2.976" gradientTransform="matrix(1 0 0 -1 0 438)">
	<stop  offset="0" style="stop-color:#FFFFFF;stop-opacity:8.000000e-02"/>
	<stop  offset="1" style="stop-color:#FFFFFF;stop-opacity:0"/>
</linearGradient>
<path style="fill:url(#SVGID_00000078765286361417876040000011494879670821669770_);" d="M126,362.4l5.5,12.8l13.9,1.3l-10.5,9.2
	l3.1,13.6l-12-7.1l-12,7.1l3.1-13.6l-10.5-9.2l13.9-1.3L126,362.4z"/>
<linearGradient id="SVGID_00000152250393550040819940000006742004113127468443_" gradientUnits="userSpaceOnUse" x1="168.0002" y1="446" x2="168.0002" y2="2.976" gradientTransform="matrix(1 0 0 -1 0 438)">
	<stop  offset="0" style="stop-color:#FFFFFF;stop-opacity:8.000000e-02"/>
	<stop  offset="1" style="stop-color:#FFFFFF;stop-opacity:0"/>
</linearGradient>
<path style="fill:url(#SVGID_00000152250393550040819940000006742004113127468443_);" d="M168,412l3.4,8l8.7,0.8l-6.5,5.7l1.9,8.5
	l-7.5-4.4l-7.5,4.4l1.9-8.5l-6.5-5.7l8.7-0.8L168,412z"/>
<linearGradient id="SVGID_00000165213690055524118180000001009235568663533220_" gradientUnits="userSpaceOnUse" x1="209.9996" y1="446" x2="209.9996" y2="2.976" gradientTransform="matrix(1 0 0 -1 0 438)">
	<stop  offset="0" style="stop-color:#FFFFFF;stop-opacity:8.000000e-02"/>
	<stop  offset="1" style="stop-color:#FFFFFF;stop-opacity:0"/>
</linearGradient>
<path style="fill:url(#SVGID_00000165213690055524118180000001009235568663533220_);" d="M215.5,375.1l-5.5-12.8l-5.5,12.8
	l-13.9,1.3l10.5,9.2l-3.1,13.6l12-7.1l12,7.1l-3.1-13.6l10.5-9.2L215.5,375.1z"/>
<linearGradient id="SVGID_00000083782222731587978470000002202228625015360163_" gradientUnits="userSpaceOnUse" x1="252.0002" y1="446" x2="252.0002" y2="2.976" gradientTransform="matrix(1 0 0 -1 0 438)">
	<stop  offset="0" style="stop-color:#FFFFFF;stop-opacity:8.000000e-02"/>
	<stop  offset="1" style="stop-color:#FFFFFF;stop-opacity:0"/>
</linearGradient>
<path style="fill:url(#SVGID_00000083782222731587978470000002202228625015360163_);" d="M255.4,420l-3.4-8l-3.4,8l-8.7,0.8l6.5,5.7
	l-1.9,8.5l7.5-4.4l7.5,4.4l-1.9-8.5l6.5-5.7L255.4,420z"/>
<linearGradient id="SVGID_00000119805235546904996460000001763587489157618619_" gradientUnits="userSpaceOnUse" x1="293.9997" y1="446" x2="293.9997" y2="2.976" gradientTransform="matrix(1 0 0 -1 0 438)">
	<stop  offset="0" style="stop-color:#FFFFFF;stop-opacity:8.000000e-02"/>
	<stop  offset="1" style="stop-color:#FFFFFF;stop-opacity:0"/>
</linearGradient>
<path style="fill:url(#SVGID_00000119805235546904996460000001763587489157618619_);" d="M294,362.4l5.5,12.8l13.9,1.3l-10.5,9.2
	l3.1,13.6l-12-7.1l-12,7.1l3.1-13.6l-10.5-9.2l13.9-1.3L294,362.4z"/>
<linearGradient id="SVGID_00000040556890787066234290000006868722782793686679_" gradientUnits="userSpaceOnUse" x1="336.0002" y1="446" x2="336.0002" y2="2.976" gradientTransform="matrix(1 0 0 -1 0 438)">
	<stop  offset="0" style="stop-color:#FFFFFF;stop-opacity:8.000000e-02"/>
	<stop  offset="1" style="stop-color:#FFFFFF;stop-opacity:0"/>
</linearGradient>
<path style="fill:url(#SVGID_00000040556890787066234290000006868722782793686679_);" d="M336,412l3.4,8l8.7,0.8l-6.5,5.7l1.9,8.5
	l-7.5-4.4l-7.5,4.4l1.9-8.5l-6.5-5.7l8.7-0.8L336,412z"/>
<linearGradient id="SVGID_00000050637776102662092130000003786029821437481353_" gradientUnits="userSpaceOnUse" x1="377.9997" y1="446" x2="377.9997" y2="2.976" gradientTransform="matrix(1 0 0 -1 0 438)">
	<stop  offset="0" style="stop-color:#FFFFFF;stop-opacity:8.000000e-02"/>
	<stop  offset="1" style="stop-color:#FFFFFF;stop-opacity:0"/>
</linearGradient>
<path style="fill:url(#SVGID_00000050637776102662092130000003786029821437481353_);" d="M383.5,375.1l-5.5-12.8l-5.5,12.8
	l-13.9,1.3l10.5,9.2l-3.1,13.6l12-7.1l12,7.1l-3.1-13.6l10.5-9.2L383.5,375.1z"/>
<linearGradient id="SVGID_00000011021808868970655530000014022231671928791172_" gradientUnits="userSpaceOnUse" x1="420.0002" y1="446" x2="420.0002" y2="2.976" gradientTransform="matrix(1 0 0 -1 0 438)">
	<stop  offset="0" style="stop-color:#FFFFFF;stop-opacity:8.000000e-02"/>
	<stop  offset="1" style="stop-color:#FFFFFF;stop-opacity:0"/>
</linearGradient>
<path style="fill:url(#SVGID_00000011021808868970655530000014022231671928791172_);" d="M423.4,420l-3.4-8l-3.4,8l-8.7,0.8l6.5,5.7
	l-1.9,8.5l7.5-4.4l7.5,4.4l-1.9-8.5l6.5-5.7L423.4,420z"/>
</svg>
