<?xml version="1.0" encoding="utf-8"?>
<!-- Generator: Adobe Illustrator 26.0.3, SVG Export Plug-In . SVG Version: 6.00 Build 0)  -->
<svg version="1.1" id="Слой_1" xmlns="http://www.w3.org/2000/svg" xmlns:xlink="http://www.w3.org/1999/xlink" x="0px" y="0px"
	 viewBox="0 0 418.8 436" style="enable-background:new 0 0 418.8 436;" xml:space="preserve">
<style type="text/css">
	.st0{fill:url(#SVGID_1_);}
	.st1{fill:url(#SVGID_00000150788783293236145710000008050399504667785398_);}
	.st2{fill:url(#SVGID_00000058576265705152493020000007930670879666894221_);}
	.st3{fill:url(#SVGID_00000032608390118135352820000008648901612987141262_);}
	.st4{fill:url(#SVGID_00000051342747656548864970000008406684149246137243_);}
	.st5{fill:url(#SVGID_00000047743126084283269960000006703201332267347897_);}
	.st6{fill:url(#SVGID_00000100379415304427106630000002005451133217991045_);}
	.st7{fill:url(#SVGID_00000045593918714570766920000005171716672363941507_);}
	.st8{fill:url(#SVGID_00000173128319734209271900000013885199328028198316_);}
	.st9{fill:url(#SVGID_00000084491221836845618220000016038912858376631187_);}
	.st10{fill:url(#SVGID_00000057124663568863584470000012374806921542733446_);}
	.st11{fill:url(#SVGID_00000111164889395921130560000011684851876693145007_);}
	.st12{fill:url(#SVGID_00000110446119199144815410000017551798550102078113_);}
	.st13{fill:url(#SVGID_00000158022684344940707740000012674219395868319126_);}
	.st14{fill:url(#SVGID_00000082343777625077607260000006477557353460126909_);}
	.st15{fill:url(#SVGID_00000034056567024798682330000000853391581264477844_);}
	.st16{fill:url(#SVGID_00000103224446168424422990000002923199097939325072_);}
	.st17{fill:url(#SVGID_00000173160619987031176280000009157651162770682534_);}
	.st18{fill:url(#SVGID_00000084494451534397053130000007089520704436127652_);}
	.st19{fill:url(#SVGID_00000134248260779428681940000014976669960178533014_);}
	.st20{fill:url(#SVGID_00000173863537907392368640000015584425828029744023_);}
	.st21{fill:url(#SVGID_00000093159099146087079540000017009866217459877293_);}
	.st22{fill:url(#SVGID_00000073681528374839992040000011668584555074478251_);}
	.st23{fill:url(#SVGID_00000104672610796489630680000001593634373902386837_);}
	.st24{fill:url(#SVGID_00000040548640791590598220000006318869610220781488_);}
	.st25{fill:url(#SVGID_00000067195161820746087710000002001733725451313045_);}
	.st26{fill:url(#SVGID_00000094615397745246633200000009019762152730031021_);}
	.st27{fill:url(#SVGID_00000030462390454621585280000011755530195395442309_);}
	.st28{fill:url(#SVGID_00000105387750962728214570000003813696913296822974_);}
	.st29{fill:url(#SVGID_00000065060239048668348530000017739972028998460351_);}
	.st30{fill:url(#SVGID_00000112614098176158566170000016801358652002319758_);}
	.st31{fill:url(#SVGID_00000061455593773934823220000003047362120791225778_);}
	.st32{fill:url(#SVGID_00000093893395579113569960000015877414122526614924_);}
	.st33{fill:url(#SVGID_00000005986839883526384120000001448458444809942971_);}
	.st34{fill:url(#SVGID_00000118380364922148310350000010371097219023104129_);}
	.st35{fill:url(#SVGID_00000154389929505092607380000004246159087179243905_);}
	.st36{fill:url(#SVGID_00000173862446147318419240000011572422918061668997_);}
	.st37{fill:url(#SVGID_00000110438152979226950120000006045597969062126984_);}
	.st38{fill:url(#SVGID_00000062875035760817767730000015461149734092876209_);}
	.st39{fill:url(#SVGID_00000000203335123676668170000011159840800855691710_);}
	.st40{fill:url(#SVGID_00000108997339552323023540000014259887347871945146_);}
	.st41{fill:url(#SVGID_00000162344893896989742520000012696772567275156100_);}
	.st42{fill:url(#SVGID_00000078765878238672835320000010007370653897096875_);}
	.st43{fill:url(#SVGID_00000133509467117172054940000011110041786025911216_);}
	.st44{fill:url(#SVGID_00000089550040238342856050000006692382205229989558_);}
	.st45{fill:url(#SVGID_00000053545421689579639060000007207657075983087243_);}
	.st46{fill:url(#SVGID_00000010301463656655114560000011643260706651527842_);}
	.st47{fill:url(#SVGID_00000068638305397346825900000013357986138473717657_);}
	.st48{fill:url(#SVGID_00000079453101972617681270000011908544143709048229_);}
	.st49{fill:url(#SVGID_00000085233530009828663920000010165487121079616181_);}
	.st50{fill:url(#SVGID_00000085224740569549954550000009855084150527458690_);}
	.st51{fill:url(#SVGID_00000140002367622812355960000007266475198330998931_);}
	.st52{fill:url(#SVGID_00000051343339963343588670000002468234946876573058_);}
	.st53{fill:url(#SVGID_00000042703610848942620480000008427039486286160549_);}
	.st54{fill:url(#SVGID_00000114058858579563296000000007146326848483371175_);}
	.st55{fill:url(#SVGID_00000050658184368370898270000001930010424173771417_);}
	.st56{fill:url(#SVGID_00000119826797557010172620000011241360385660486546_);}
	.st57{fill:url(#SVGID_00000175295135282262974350000008434472247091165593_);}
	.st58{fill:url(#SVGID_00000177466885153404457700000009628833272606110649_);}
	.st59{fill:url(#SVGID_00000142160947247291374140000002641744800374477205_);}
	.st60{fill:url(#SVGID_00000160186201547644538590000012900393610854707627_);}
</style>
<linearGradient id="SVGID_1_" gradientUnits="userSpaceOnUse" x1="9.094947e-13" y1="-6" x2="9.366221e-13" y2="437.0238" gradientTransform="matrix(1 0 0 -1 0 438)">
	<stop  offset="0" style="stop-color:#FFFFFF;stop-opacity:5.000000e-02"/>
	<stop  offset="1" style="stop-color:#FFFFFF;stop-opacity:0"/>
</linearGradient>
<path class="st0" d="M0,444l3.4-8l8.7-0.8l-6.5-5.7l1.9-8.5L0,425.4l-7.5-4.4l1.9,8.5l-6.5,5.7l8.7,0.8L0,444z"/>
<linearGradient id="SVGID_00000004535488589803466410000015298213020160577724_" gradientUnits="userSpaceOnUse" x1="84.0002" y1="-6" x2="84.0002" y2="437.0238" gradientTransform="matrix(1 0 0 -1 0 438)">
	<stop  offset="0" style="stop-color:#FFFFFF;stop-opacity:5.000000e-02"/>
	<stop  offset="1" style="stop-color:#FFFFFF;stop-opacity:0"/>
</linearGradient>
<path style="fill:url(#SVGID_00000004535488589803466410000015298213020160577724_);" d="M84,444l3.4-8l8.7-0.8l-6.5-5.7l1.9-8.5
	l-7.5,4.4l-7.5-4.4l1.9,8.5l-6.5,5.7l8.7,0.8L84,444z"/>
<linearGradient id="SVGID_00000130627899491047248880000016711237441462536840_" gradientUnits="userSpaceOnUse" x1="42" y1="-6" x2="42" y2="437.0238" gradientTransform="matrix(1 0 0 -1 0 438)">
	<stop  offset="0" style="stop-color:#FFFFFF;stop-opacity:5.000000e-02"/>
	<stop  offset="1" style="stop-color:#FFFFFF;stop-opacity:0"/>
</linearGradient>
<path style="fill:url(#SVGID_00000130627899491047248880000016711237441462536840_);" d="M42,409.6l5.5-12.8l13.9-1.3l-10.5-9.2
	l3.1-13.6l-12,7.1l-12-7.1l3.1,13.6l-10.5,9.2l13.9,1.3L42,409.6z"/>
<linearGradient id="SVGID_00000082344556939775999290000008678414331296927922_" gradientUnits="userSpaceOnUse" x1="84.0002" y1="-6" x2="84.0002" y2="437.0238" gradientTransform="matrix(1 0 0 -1 0 438)">
	<stop  offset="0" style="stop-color:#FFFFFF;stop-opacity:5.000000e-02"/>
	<stop  offset="1" style="stop-color:#FFFFFF;stop-opacity:0"/>
</linearGradient>
<path style="fill:url(#SVGID_00000082344556939775999290000008678414331296927922_);" d="M87.4,352l-3.4,8l-3.4-8l-8.7-0.8l6.5-5.7
	l-1.9-8.5l7.5,4.4l7.5-4.4l-1.9,8.5l6.5,5.7L87.4,352z"/>
<linearGradient id="SVGID_00000023269976552274319560000000626067320327980190_" gradientUnits="userSpaceOnUse" x1="9.094947e-13" y1="-6" x2="9.366221e-13" y2="437.0238" gradientTransform="matrix(1 0 0 -1 0 438)">
	<stop  offset="0" style="stop-color:#FFFFFF;stop-opacity:5.000000e-02"/>
	<stop  offset="1" style="stop-color:#FFFFFF;stop-opacity:0"/>
</linearGradient>
<path style="fill:url(#SVGID_00000023269976552274319560000000626067320327980190_);" d="M3.4,352L0,360l-3.4-8l-8.7-0.8l6.5-5.7
	l-1.9-8.5l7.5,4.4l7.5-4.4l-1.9,8.5l6.5,5.7L3.4,352z"/>
<linearGradient id="SVGID_00000060730911191280476650000007012195444068383895_" gradientUnits="userSpaceOnUse" x1="125.9996" y1="-6" x2="125.9996" y2="437.0238" gradientTransform="matrix(1 0 0 -1 0 438)">
	<stop  offset="0" style="stop-color:#FFFFFF;stop-opacity:5.000000e-02"/>
	<stop  offset="1" style="stop-color:#FFFFFF;stop-opacity:0"/>
</linearGradient>
<path style="fill:url(#SVGID_00000060730911191280476650000007012195444068383895_);" d="M126,409.6l5.5-12.8l13.9-1.3l-10.5-9.2
	l3.1-13.6l-12,7.1l-12-7.1l3.1,13.6l-10.5,9.2l13.9,1.3L126,409.6z"/>
<linearGradient id="SVGID_00000079459454315134598440000014693811369005514687_" gradientUnits="userSpaceOnUse" x1="168.0002" y1="-6" x2="168.0002" y2="437.0238" gradientTransform="matrix(1 0 0 -1 0 438)">
	<stop  offset="0" style="stop-color:#FFFFFF;stop-opacity:5.000000e-02"/>
	<stop  offset="1" style="stop-color:#FFFFFF;stop-opacity:0"/>
</linearGradient>
<path style="fill:url(#SVGID_00000079459454315134598440000014693811369005514687_);" d="M171.4,436l-3.4,8l-3.4-8l-8.7-0.8l6.5-5.7
	l-1.9-8.5l7.5,4.4l7.5-4.4l-1.9,8.5l6.5,5.7L171.4,436z"/>
<linearGradient id="SVGID_00000062896707376018726680000006860625246837815979_" gradientUnits="userSpaceOnUse" x1="168.0002" y1="-6" x2="168.0002" y2="437.0238" gradientTransform="matrix(1 0 0 -1 0 438)">
	<stop  offset="0" style="stop-color:#FFFFFF;stop-opacity:5.000000e-02"/>
	<stop  offset="1" style="stop-color:#FFFFFF;stop-opacity:0"/>
</linearGradient>
<path style="fill:url(#SVGID_00000062896707376018726680000006860625246837815979_);" d="M168,360l3.4-8l8.7-0.8l-6.5-5.7l1.9-8.5
	l-7.5,4.4l-7.5-4.4l1.9,8.5l-6.5,5.7l8.7,0.8L168,360z"/>
<linearGradient id="SVGID_00000052819588846507365400000011663664251308116638_" gradientUnits="userSpaceOnUse" x1="209.9996" y1="-6" x2="209.9996" y2="437.0238" gradientTransform="matrix(1 0 0 -1 0 438)">
	<stop  offset="0" style="stop-color:#FFFFFF;stop-opacity:5.000000e-02"/>
	<stop  offset="1" style="stop-color:#FFFFFF;stop-opacity:0"/>
</linearGradient>
<path style="fill:url(#SVGID_00000052819588846507365400000011663664251308116638_);" d="M215.5,396.9l-5.5,12.8l-5.5-12.8
	l-13.9-1.3l10.5-9.2l-3.1-13.6l12,7.1l12-7.1l-3.1,13.6l10.5,9.2L215.5,396.9z"/>
<linearGradient id="SVGID_00000160880233406863200800000012335959690111440553_" gradientUnits="userSpaceOnUse" x1="252.0002" y1="-6" x2="252.0002" y2="437.0238" gradientTransform="matrix(1 0 0 -1 0 438)">
	<stop  offset="0" style="stop-color:#FFFFFF;stop-opacity:5.000000e-02"/>
	<stop  offset="1" style="stop-color:#FFFFFF;stop-opacity:0"/>
</linearGradient>
<path style="fill:url(#SVGID_00000160880233406863200800000012335959690111440553_);" d="M252,444l3.4-8l8.7-0.8l-6.5-5.7l1.9-8.5
	l-7.5,4.4l-7.5-4.4l1.9,8.5l-6.5,5.7l8.7,0.8L252,444z"/>
<linearGradient id="SVGID_00000064338342821768810160000005649357023494744722_" gradientUnits="userSpaceOnUse" x1="252.0002" y1="-6" x2="252.0002" y2="437.0238" gradientTransform="matrix(1 0 0 -1 0 438)">
	<stop  offset="0" style="stop-color:#FFFFFF;stop-opacity:5.000000e-02"/>
	<stop  offset="1" style="stop-color:#FFFFFF;stop-opacity:0"/>
</linearGradient>
<path style="fill:url(#SVGID_00000064338342821768810160000005649357023494744722_);" d="M255.4,352l-3.4,8l-3.4-8l-8.7-0.8l6.5-5.7
	l-1.9-8.5l7.5,4.4l7.5-4.4l-1.9,8.5l6.5,5.7L255.4,352z"/>
<linearGradient id="SVGID_00000094586198819255198560000017914739213439411115_" gradientUnits="userSpaceOnUse" x1="293.9997" y1="-6" x2="293.9997" y2="437.0238" gradientTransform="matrix(1 0 0 -1 0 438)">
	<stop  offset="0" style="stop-color:#FFFFFF;stop-opacity:5.000000e-02"/>
	<stop  offset="1" style="stop-color:#FFFFFF;stop-opacity:0"/>
</linearGradient>
<path style="fill:url(#SVGID_00000094586198819255198560000017914739213439411115_);" d="M294,409.6l5.5-12.8l13.9-1.3l-10.5-9.2
	l3.1-13.6l-12,7.1l-12-7.1l3.1,13.6l-10.5,9.2l13.9,1.3L294,409.6z"/>
<linearGradient id="SVGID_00000068655943749460696950000014683785547749756547_" gradientUnits="userSpaceOnUse" x1="336.0002" y1="-6" x2="336.0002" y2="437.0238" gradientTransform="matrix(1 0 0 -1 0 438)">
	<stop  offset="0" style="stop-color:#FFFFFF;stop-opacity:5.000000e-02"/>
	<stop  offset="1" style="stop-color:#FFFFFF;stop-opacity:0"/>
</linearGradient>
<path style="fill:url(#SVGID_00000068655943749460696950000014683785547749756547_);" d="M339.4,436l-3.4,8l-3.4-8l-8.7-0.8l6.5-5.7
	l-1.9-8.5l7.5,4.4l7.5-4.4l-1.9,8.5l6.5,5.7L339.4,436z"/>
<linearGradient id="SVGID_00000097495096202480430090000009160575945898337722_" gradientUnits="userSpaceOnUse" x1="336.0002" y1="-6" x2="336.0002" y2="437.0238" gradientTransform="matrix(1 0 0 -1 0 438)">
	<stop  offset="0" style="stop-color:#FFFFFF;stop-opacity:5.000000e-02"/>
	<stop  offset="1" style="stop-color:#FFFFFF;stop-opacity:0"/>
</linearGradient>
<path style="fill:url(#SVGID_00000097495096202480430090000009160575945898337722_);" d="M336,360l3.4-8l8.7-0.8l-6.5-5.7l1.9-8.5
	l-7.5,4.4l-7.5-4.4l1.9,8.5l-6.5,5.7l8.7,0.8L336,360z"/>
<linearGradient id="SVGID_00000165222533205782210520000001286293701227556480_" gradientUnits="userSpaceOnUse" x1="377.9997" y1="-6" x2="377.9997" y2="437.0238" gradientTransform="matrix(1 0 0 -1 0 438)">
	<stop  offset="0" style="stop-color:#FFFFFF;stop-opacity:5.000000e-02"/>
	<stop  offset="1" style="stop-color:#FFFFFF;stop-opacity:0"/>
</linearGradient>
<path style="fill:url(#SVGID_00000165222533205782210520000001286293701227556480_);" d="M383.5,396.9l-5.5,12.8l-5.5-12.8
	l-13.9-1.3l10.5-9.2l-3.1-13.6l12,7.1l12-7.1l-3.1,13.6l10.5,9.2L383.5,396.9z"/>
<linearGradient id="SVGID_00000121248773747602581360000005813827587964372866_" gradientUnits="userSpaceOnUse" x1="420.0002" y1="-6" x2="420.0002" y2="437.0238" gradientTransform="matrix(1 0 0 -1 0 438)">
	<stop  offset="0" style="stop-color:#FFFFFF;stop-opacity:5.000000e-02"/>
	<stop  offset="1" style="stop-color:#FFFFFF;stop-opacity:0"/>
</linearGradient>
<path style="fill:url(#SVGID_00000121248773747602581360000005813827587964372866_);" d="M420,444l3.4-8l8.7-0.8l-6.5-5.7l1.9-8.5
	l-7.5,4.4l-7.5-4.4l1.9,8.5l-6.5,5.7l8.7,0.8L420,444z"/>
<linearGradient id="SVGID_00000075866999269789981610000006704672321090144430_" gradientUnits="userSpaceOnUse" x1="420.0002" y1="-6" x2="420.0002" y2="437.0238" gradientTransform="matrix(1 0 0 -1 0 438)">
	<stop  offset="0" style="stop-color:#FFFFFF;stop-opacity:5.000000e-02"/>
	<stop  offset="1" style="stop-color:#FFFFFF;stop-opacity:0"/>
</linearGradient>
<path style="fill:url(#SVGID_00000075866999269789981610000006704672321090144430_);" d="M423.4,352l-3.4,8l-3.4-8l-8.7-0.8l6.5-5.7
	l-1.9-8.5l7.5,4.4l7.5-4.4l-1.9,8.5l6.5,5.7L423.4,352z"/>
<linearGradient id="SVGID_00000141453504033672795480000013517213065861583797_" gradientUnits="userSpaceOnUse" x1="42" y1="-6" x2="42" y2="437.0238" gradientTransform="matrix(1 0 0 -1 0 438)">
	<stop  offset="0" style="stop-color:#FFFFFF;stop-opacity:5.000000e-02"/>
	<stop  offset="1" style="stop-color:#FFFFFF;stop-opacity:0"/>
</linearGradient>
<path style="fill:url(#SVGID_00000141453504033672795480000013517213065861583797_);" d="M42,325.6l5.5-12.8l13.9-1.3l-10.5-9.2
	l3.1-13.6l-12,7.1l-12-7.1l3.1,13.6l-10.5,9.2l13.9,1.3L42,325.6z"/>
<linearGradient id="SVGID_00000061440920028382058960000015249613472966244225_" gradientUnits="userSpaceOnUse" x1="84.0002" y1="-6" x2="84.0002" y2="437.0238" gradientTransform="matrix(1 0 0 -1 0 438)">
	<stop  offset="0" style="stop-color:#FFFFFF;stop-opacity:5.000000e-02"/>
	<stop  offset="1" style="stop-color:#FFFFFF;stop-opacity:0"/>
</linearGradient>
<path style="fill:url(#SVGID_00000061440920028382058960000015249613472966244225_);" d="M84,276l3.4-8l8.7-0.8l-6.5-5.7l1.9-8.5
	l-7.5,4.4l-7.5-4.4l1.9,8.5l-6.5,5.7l8.7,0.8L84,276z"/>
<linearGradient id="SVGID_00000132780845188415646350000009742110725760187286_" gradientUnits="userSpaceOnUse" x1="9.094947e-13" y1="-6" x2="9.366221e-13" y2="437.0238" gradientTransform="matrix(1 0 0 -1 0 438)">
	<stop  offset="0" style="stop-color:#FFFFFF;stop-opacity:5.000000e-02"/>
	<stop  offset="1" style="stop-color:#FFFFFF;stop-opacity:0"/>
</linearGradient>
<path style="fill:url(#SVGID_00000132780845188415646350000009742110725760187286_);" d="M0,276l3.4-8l8.7-0.8l-6.5-5.7l1.9-8.5
	L0,257.4l-7.5-4.4l1.9,8.5l-6.5,5.7l8.7,0.8L0,276z"/>
<linearGradient id="SVGID_00000125582049319465709890000003540401289783972231_" gradientUnits="userSpaceOnUse" x1="125.9996" y1="-6" x2="125.9996" y2="437.0238" gradientTransform="matrix(1 0 0 -1 0 438)">
	<stop  offset="0" style="stop-color:#FFFFFF;stop-opacity:5.000000e-02"/>
	<stop  offset="1" style="stop-color:#FFFFFF;stop-opacity:0"/>
</linearGradient>
<path style="fill:url(#SVGID_00000125582049319465709890000003540401289783972231_);" d="M131.5,312.9l-5.5,12.8l-5.5-12.8
	l-13.9-1.3l10.5-9.2l-3.1-13.6l12,7.1l12-7.1l-3.1,13.6l10.5,9.2L131.5,312.9z"/>
<linearGradient id="SVGID_00000070088129217471947710000016892674051392288384_" gradientUnits="userSpaceOnUse" x1="168.0002" y1="-6" x2="168.0002" y2="437.0238" gradientTransform="matrix(1 0 0 -1 0 438)">
	<stop  offset="0" style="stop-color:#FFFFFF;stop-opacity:5.000000e-02"/>
	<stop  offset="1" style="stop-color:#FFFFFF;stop-opacity:0"/>
</linearGradient>
<path style="fill:url(#SVGID_00000070088129217471947710000016892674051392288384_);" d="M171.4,268l-3.4,8l-3.4-8l-8.7-0.8l6.5-5.7
	l-1.9-8.5l7.5,4.4l7.5-4.4l-1.9,8.5l6.5,5.7L171.4,268z"/>
<linearGradient id="SVGID_00000093160908288729699970000008432021042258863765_" gradientUnits="userSpaceOnUse" x1="209.9996" y1="-6" x2="209.9996" y2="437.0238" gradientTransform="matrix(1 0 0 -1 0 438)">
	<stop  offset="0" style="stop-color:#FFFFFF;stop-opacity:5.000000e-02"/>
	<stop  offset="1" style="stop-color:#FFFFFF;stop-opacity:0"/>
</linearGradient>
<path style="fill:url(#SVGID_00000093160908288729699970000008432021042258863765_);" d="M210,325.6l5.5-12.8l13.9-1.3l-10.5-9.2
	l3.1-13.6l-12,7.1l-12-7.1l3.1,13.6l-10.5,9.2l13.9,1.3L210,325.6z"/>
<linearGradient id="SVGID_00000025401181849585966420000013646876126970099080_" gradientUnits="userSpaceOnUse" x1="252.0002" y1="-6" x2="252.0002" y2="437.0238" gradientTransform="matrix(1 0 0 -1 0 438)">
	<stop  offset="0" style="stop-color:#FFFFFF;stop-opacity:5.000000e-02"/>
	<stop  offset="1" style="stop-color:#FFFFFF;stop-opacity:0"/>
</linearGradient>
<path style="fill:url(#SVGID_00000025401181849585966420000013646876126970099080_);" d="M252,276l3.4-8l8.7-0.8l-6.5-5.7l1.9-8.5
	l-7.5,4.4l-7.5-4.4l1.9,8.5l-6.5,5.7l8.7,0.8L252,276z"/>
<linearGradient id="SVGID_00000181798480249548825400000003019132305494376086_" gradientUnits="userSpaceOnUse" x1="293.9997" y1="-6" x2="293.9997" y2="437.0238" gradientTransform="matrix(1 0 0 -1 0 438)">
	<stop  offset="0" style="stop-color:#FFFFFF;stop-opacity:5.000000e-02"/>
	<stop  offset="1" style="stop-color:#FFFFFF;stop-opacity:0"/>
</linearGradient>
<path style="fill:url(#SVGID_00000181798480249548825400000003019132305494376086_);" d="M299.5,312.9l-5.5,12.8l-5.5-12.8
	l-13.9-1.3l10.5-9.2l-3.1-13.6l12,7.1l12-7.1l-3.1,13.6l10.5,9.2L299.5,312.9z"/>
<linearGradient id="SVGID_00000014628914104286635680000002973290919600344743_" gradientUnits="userSpaceOnUse" x1="336.0002" y1="-6" x2="336.0002" y2="437.0238" gradientTransform="matrix(1 0 0 -1 0 438)">
	<stop  offset="0" style="stop-color:#FFFFFF;stop-opacity:5.000000e-02"/>
	<stop  offset="1" style="stop-color:#FFFFFF;stop-opacity:0"/>
</linearGradient>
<path style="fill:url(#SVGID_00000014628914104286635680000002973290919600344743_);" d="M339.4,268l-3.4,8l-3.4-8l-8.7-0.8l6.5-5.7
	l-1.9-8.5l7.5,4.4l7.5-4.4l-1.9,8.5l6.5,5.7L339.4,268z"/>
<linearGradient id="SVGID_00000067959109897775307590000006084587443253283459_" gradientUnits="userSpaceOnUse" x1="377.9997" y1="-6" x2="377.9997" y2="437.0238" gradientTransform="matrix(1 0 0 -1 0 438)">
	<stop  offset="0" style="stop-color:#FFFFFF;stop-opacity:5.000000e-02"/>
	<stop  offset="1" style="stop-color:#FFFFFF;stop-opacity:0"/>
</linearGradient>
<path style="fill:url(#SVGID_00000067959109897775307590000006084587443253283459_);" d="M378,325.6l5.5-12.8l13.9-1.3l-10.5-9.2
	l3.1-13.6l-12,7.1l-12-7.1l3.1,13.6l-10.5,9.2l13.9,1.3L378,325.6z"/>
<linearGradient id="SVGID_00000129168899548515450380000001544879841026063803_" gradientUnits="userSpaceOnUse" x1="420.0002" y1="-6" x2="420.0002" y2="437.0238" gradientTransform="matrix(1 0 0 -1 0 438)">
	<stop  offset="0" style="stop-color:#FFFFFF;stop-opacity:5.000000e-02"/>
	<stop  offset="1" style="stop-color:#FFFFFF;stop-opacity:0"/>
</linearGradient>
<path style="fill:url(#SVGID_00000129168899548515450380000001544879841026063803_);" d="M420,276l3.4-8l8.7-0.8l-6.5-5.7l1.9-8.5
	l-7.5,4.4l-7.5-4.4l1.9,8.5l-6.5,5.7l8.7,0.8L420,276z"/>
<linearGradient id="SVGID_00000098919412378998147870000009737132781677561262_" gradientUnits="userSpaceOnUse" x1="42" y1="-6" x2="42" y2="437.0238" gradientTransform="matrix(1 0 0 -1 0 438)">
	<stop  offset="0" style="stop-color:#FFFFFF;stop-opacity:5.000000e-02"/>
	<stop  offset="1" style="stop-color:#FFFFFF;stop-opacity:0"/>
</linearGradient>
<path style="fill:url(#SVGID_00000098919412378998147870000009737132781677561262_);" d="M47.5,228.9L42,241.6l-5.5-12.8l-13.9-1.3
	l10.5-9.2L30,204.8l12,7.1l12-7.1l-3.1,13.6l10.5,9.2L47.5,228.9z"/>
<linearGradient id="SVGID_00000060008483576986308910000016355383620215185083_" gradientUnits="userSpaceOnUse" x1="84.0002" y1="-6" x2="84.0002" y2="437.0238" gradientTransform="matrix(1 0 0 -1 0 438)">
	<stop  offset="0" style="stop-color:#FFFFFF;stop-opacity:5.000000e-02"/>
	<stop  offset="1" style="stop-color:#FFFFFF;stop-opacity:0"/>
</linearGradient>
<path style="fill:url(#SVGID_00000060008483576986308910000016355383620215185083_);" d="M87.4,184l-3.4,8l-3.4-8l-8.7-0.8l6.5-5.7
	l-1.9-8.5l7.5,4.4l7.5-4.4l-1.9,8.5l6.5,5.7L87.4,184z"/>
<linearGradient id="SVGID_00000111154714280560206880000002123052418079211689_" gradientUnits="userSpaceOnUse" x1="9.094947e-13" y1="-6" x2="9.366221e-13" y2="437.0238" gradientTransform="matrix(1 0 0 -1 0 438)">
	<stop  offset="0" style="stop-color:#FFFFFF;stop-opacity:5.000000e-02"/>
	<stop  offset="1" style="stop-color:#FFFFFF;stop-opacity:0"/>
</linearGradient>
<path style="fill:url(#SVGID_00000111154714280560206880000002123052418079211689_);" d="M3.4,184L0,192l-3.4-8l-8.7-0.8l6.5-5.7
	l-1.9-8.5l7.5,4.4l7.5-4.4l-1.9,8.5l6.5,5.7L3.4,184z"/>
<linearGradient id="SVGID_00000168087802376548132640000006475945978842284721_" gradientUnits="userSpaceOnUse" x1="125.9996" y1="-6" x2="125.9996" y2="437.0238" gradientTransform="matrix(1 0 0 -1 0 438)">
	<stop  offset="0" style="stop-color:#FFFFFF;stop-opacity:5.000000e-02"/>
	<stop  offset="1" style="stop-color:#FFFFFF;stop-opacity:0"/>
</linearGradient>
<path style="fill:url(#SVGID_00000168087802376548132640000006475945978842284721_);" d="M126,241.6l5.5-12.8l13.9-1.3l-10.5-9.2
	l3.1-13.6l-12,7.1l-12-7.1l3.1,13.6l-10.5,9.2l13.9,1.3L126,241.6z"/>
<linearGradient id="SVGID_00000131340245607894296570000014329375307697039792_" gradientUnits="userSpaceOnUse" x1="168.0002" y1="-6" x2="168.0002" y2="437.0238" gradientTransform="matrix(1 0 0 -1 0 438)">
	<stop  offset="0" style="stop-color:#FFFFFF;stop-opacity:5.000000e-02"/>
	<stop  offset="1" style="stop-color:#FFFFFF;stop-opacity:0"/>
</linearGradient>
<path style="fill:url(#SVGID_00000131340245607894296570000014329375307697039792_);" d="M168,192l3.4-8l8.7-0.8l-6.5-5.7l1.9-8.5
	l-7.5,4.4l-7.5-4.4l1.9,8.5l-6.5,5.7l8.7,0.8L168,192z"/>
<linearGradient id="SVGID_00000103964043838445656790000008447390542181391750_" gradientUnits="userSpaceOnUse" x1="209.9996" y1="-6" x2="209.9996" y2="437.0238" gradientTransform="matrix(1 0 0 -1 0 438)">
	<stop  offset="0" style="stop-color:#FFFFFF;stop-opacity:5.000000e-02"/>
	<stop  offset="1" style="stop-color:#FFFFFF;stop-opacity:0"/>
</linearGradient>
<path style="fill:url(#SVGID_00000103964043838445656790000008447390542181391750_);" d="M215.5,228.9l-5.5,12.8l-5.5-12.8
	l-13.9-1.3l10.5-9.2l-3.1-13.6l12,7.1l12-7.1l-3.1,13.6l10.5,9.2L215.5,228.9z"/>
<linearGradient id="SVGID_00000111885363215588943320000002606691012634890639_" gradientUnits="userSpaceOnUse" x1="252.0002" y1="-6" x2="252.0002" y2="437.0238" gradientTransform="matrix(1 0 0 -1 0 438)">
	<stop  offset="0" style="stop-color:#FFFFFF;stop-opacity:5.000000e-02"/>
	<stop  offset="1" style="stop-color:#FFFFFF;stop-opacity:0"/>
</linearGradient>
<path style="fill:url(#SVGID_00000111885363215588943320000002606691012634890639_);" d="M255.4,184l-3.4,8l-3.4-8l-8.7-0.8l6.5-5.7
	l-1.9-8.5l7.5,4.4l7.5-4.4l-1.9,8.5l6.5,5.7L255.4,184z"/>
<linearGradient id="SVGID_00000089546240326744799250000012582949805216460170_" gradientUnits="userSpaceOnUse" x1="293.9997" y1="-6" x2="293.9997" y2="437.0238" gradientTransform="matrix(1 0 0 -1 0 438)">
	<stop  offset="0" style="stop-color:#FFFFFF;stop-opacity:5.000000e-02"/>
	<stop  offset="1" style="stop-color:#FFFFFF;stop-opacity:0"/>
</linearGradient>
<path style="fill:url(#SVGID_00000089546240326744799250000012582949805216460170_);" d="M294,241.6l5.5-12.8l13.9-1.3l-10.5-9.2
	l3.1-13.6l-12,7.1l-12-7.1l3.1,13.6l-10.5,9.2l13.9,1.3L294,241.6z"/>
<linearGradient id="SVGID_00000096756842817475992840000010164865204259284866_" gradientUnits="userSpaceOnUse" x1="336.0002" y1="-6" x2="336.0002" y2="437.0238" gradientTransform="matrix(1 0 0 -1 0 438)">
	<stop  offset="0" style="stop-color:#FFFFFF;stop-opacity:5.000000e-02"/>
	<stop  offset="1" style="stop-color:#FFFFFF;stop-opacity:0"/>
</linearGradient>
<path style="fill:url(#SVGID_00000096756842817475992840000010164865204259284866_);" d="M336,192l3.4-8l8.7-0.8l-6.5-5.7l1.9-8.5
	l-7.5,4.4l-7.5-4.4l1.9,8.5l-6.5,5.7l8.7,0.8L336,192z"/>
<linearGradient id="SVGID_00000172400293913069998400000013420435959515730610_" gradientUnits="userSpaceOnUse" x1="377.9997" y1="-6" x2="377.9997" y2="437.0238" gradientTransform="matrix(1 0 0 -1 0 438)">
	<stop  offset="0" style="stop-color:#FFFFFF;stop-opacity:5.000000e-02"/>
	<stop  offset="1" style="stop-color:#FFFFFF;stop-opacity:0"/>
</linearGradient>
<path style="fill:url(#SVGID_00000172400293913069998400000013420435959515730610_);" d="M383.5,228.9l-5.5,12.8l-5.5-12.8
	l-13.9-1.3l10.5-9.2l-3.1-13.6l12,7.1l12-7.1l-3.1,13.6l10.5,9.2L383.5,228.9z"/>
<linearGradient id="SVGID_00000040569556493842573660000016583112539461277625_" gradientUnits="userSpaceOnUse" x1="420.0002" y1="-6" x2="420.0002" y2="437.0238" gradientTransform="matrix(1 0 0 -1 0 438)">
	<stop  offset="0" style="stop-color:#FFFFFF;stop-opacity:5.000000e-02"/>
	<stop  offset="1" style="stop-color:#FFFFFF;stop-opacity:0"/>
</linearGradient>
<path style="fill:url(#SVGID_00000040569556493842573660000016583112539461277625_);" d="M423.4,184l-3.4,8l-3.4-8l-8.7-0.8l6.5-5.7
	l-1.9-8.5l7.5,4.4l7.5-4.4l-1.9,8.5l6.5,5.7L423.4,184z"/>
<linearGradient id="SVGID_00000098183217437805543250000005738098752537818763_" gradientUnits="userSpaceOnUse" x1="42" y1="-6" x2="42" y2="437.0238" gradientTransform="matrix(1 0 0 -1 0 438)">
	<stop  offset="0" style="stop-color:#FFFFFF;stop-opacity:5.000000e-02"/>
	<stop  offset="1" style="stop-color:#FFFFFF;stop-opacity:0"/>
</linearGradient>
<path style="fill:url(#SVGID_00000098183217437805543250000005738098752537818763_);" d="M42,157.6l5.5-12.8l13.9-1.3l-10.5-9.2
	l3.1-13.6l-12,7.1l-12-7.1l3.1,13.6l-10.5,9.2l13.9,1.3L42,157.6z"/>
<linearGradient id="SVGID_00000164472674831921329930000011086892415126353284_" gradientUnits="userSpaceOnUse" x1="84.0002" y1="-6" x2="84.0002" y2="437.0238" gradientTransform="matrix(1 0 0 -1 0 438)">
	<stop  offset="0" style="stop-color:#FFFFFF;stop-opacity:5.000000e-02"/>
	<stop  offset="1" style="stop-color:#FFFFFF;stop-opacity:0"/>
</linearGradient>
<path style="fill:url(#SVGID_00000164472674831921329930000011086892415126353284_);" d="M84,108l3.4-8l8.7-0.8l-6.5-5.7l1.9-8.5
	L84,89.4L76.5,85l1.9,8.5l-6.5,5.7l8.7,0.8L84,108z"/>
<linearGradient id="SVGID_00000085225811286540580280000016834206639685245066_" gradientUnits="userSpaceOnUse" x1="9.094947e-13" y1="-6" x2="9.366221e-13" y2="437.0238" gradientTransform="matrix(1 0 0 -1 0 438)">
	<stop  offset="0" style="stop-color:#FFFFFF;stop-opacity:5.000000e-02"/>
	<stop  offset="1" style="stop-color:#FFFFFF;stop-opacity:0"/>
</linearGradient>
<path style="fill:url(#SVGID_00000085225811286540580280000016834206639685245066_);" d="M0,108l3.4-8l8.7-0.8l-6.5-5.7L7.5,85
	L0,89.4L-7.5,85l1.9,8.5l-6.5,5.7l8.7,0.8L0,108z"/>
<linearGradient id="SVGID_00000182514541567321713440000004726724738989823652_" gradientUnits="userSpaceOnUse" x1="125.9996" y1="-6" x2="125.9996" y2="437.0238" gradientTransform="matrix(1 0 0 -1 0 438)">
	<stop  offset="0" style="stop-color:#FFFFFF;stop-opacity:5.000000e-02"/>
	<stop  offset="1" style="stop-color:#FFFFFF;stop-opacity:0"/>
</linearGradient>
<path style="fill:url(#SVGID_00000182514541567321713440000004726724738989823652_);" d="M131.5,144.9l-5.5,12.8l-5.5-12.8
	l-13.9-1.3l10.5-9.2l-3.1-13.6l12,7.1l12-7.1l-3.1,13.6l10.5,9.2L131.5,144.9z"/>
<linearGradient id="SVGID_00000052809881851425546400000014387143708941547424_" gradientUnits="userSpaceOnUse" x1="168.0002" y1="-6" x2="168.0002" y2="437.0238" gradientTransform="matrix(1 0 0 -1 0 438)">
	<stop  offset="0" style="stop-color:#FFFFFF;stop-opacity:5.000000e-02"/>
	<stop  offset="1" style="stop-color:#FFFFFF;stop-opacity:0"/>
</linearGradient>
<path style="fill:url(#SVGID_00000052809881851425546400000014387143708941547424_);" d="M171.4,100l-3.4,8l-3.4-8l-8.7-0.8l6.5-5.7
	l-1.9-8.5l7.5,4.4l7.5-4.4l-1.9,8.5l6.5,5.7L171.4,100z"/>
<linearGradient id="SVGID_00000123423707522849544590000018104542822321565573_" gradientUnits="userSpaceOnUse" x1="209.9996" y1="-6" x2="209.9996" y2="437.0238" gradientTransform="matrix(1 0 0 -1 0 438)">
	<stop  offset="0" style="stop-color:#FFFFFF;stop-opacity:5.000000e-02"/>
	<stop  offset="1" style="stop-color:#FFFFFF;stop-opacity:0"/>
</linearGradient>
<path style="fill:url(#SVGID_00000123423707522849544590000018104542822321565573_);" d="M210,157.6l5.5-12.8l13.9-1.3l-10.5-9.2
	l3.1-13.6l-12,7.1l-12-7.1l3.1,13.6l-10.5,9.2l13.9,1.3L210,157.6z"/>
<linearGradient id="SVGID_00000181047634739494463890000002097773021724534177_" gradientUnits="userSpaceOnUse" x1="252.0002" y1="-6" x2="252.0002" y2="437.0238" gradientTransform="matrix(1 0 0 -1 0 438)">
	<stop  offset="0" style="stop-color:#FFFFFF;stop-opacity:5.000000e-02"/>
	<stop  offset="1" style="stop-color:#FFFFFF;stop-opacity:0"/>
</linearGradient>
<path style="fill:url(#SVGID_00000181047634739494463890000002097773021724534177_);" d="M252,108l3.4-8l8.7-0.8l-6.5-5.7l1.9-8.5
	l-7.5,4.4l-7.5-4.4l1.9,8.5l-6.5,5.7l8.7,0.8L252,108z"/>
<linearGradient id="SVGID_00000147216451784872287870000012537327569014544514_" gradientUnits="userSpaceOnUse" x1="293.9997" y1="-6" x2="293.9997" y2="437.0238" gradientTransform="matrix(1 0 0 -1 0 438)">
	<stop  offset="0" style="stop-color:#FFFFFF;stop-opacity:5.000000e-02"/>
	<stop  offset="1" style="stop-color:#FFFFFF;stop-opacity:0"/>
</linearGradient>
<path style="fill:url(#SVGID_00000147216451784872287870000012537327569014544514_);" d="M299.5,144.9l-5.5,12.8l-5.5-12.8
	l-13.9-1.3l10.5-9.2l-3.1-13.6l12,7.1l12-7.1l-3.1,13.6l10.5,9.2L299.5,144.9z"/>
<linearGradient id="SVGID_00000008147680524503005070000017003325218490070684_" gradientUnits="userSpaceOnUse" x1="336.0002" y1="-6" x2="336.0002" y2="437.0238" gradientTransform="matrix(1 0 0 -1 0 438)">
	<stop  offset="0" style="stop-color:#FFFFFF;stop-opacity:5.000000e-02"/>
	<stop  offset="1" style="stop-color:#FFFFFF;stop-opacity:0"/>
</linearGradient>
<path style="fill:url(#SVGID_00000008147680524503005070000017003325218490070684_);" d="M339.4,100l-3.4,8l-3.4-8l-8.7-0.8l6.5-5.7
	l-1.9-8.5l7.5,4.4l7.5-4.4l-1.9,8.5l6.5,5.7L339.4,100z"/>
<linearGradient id="SVGID_00000000920276263159261430000016176819930912995772_" gradientUnits="userSpaceOnUse" x1="377.9997" y1="-6" x2="377.9997" y2="437.0238" gradientTransform="matrix(1 0 0 -1 0 438)">
	<stop  offset="0" style="stop-color:#FFFFFF;stop-opacity:5.000000e-02"/>
	<stop  offset="1" style="stop-color:#FFFFFF;stop-opacity:0"/>
</linearGradient>
<path style="fill:url(#SVGID_00000000920276263159261430000016176819930912995772_);" d="M378,157.6l5.5-12.8l13.9-1.3l-10.5-9.2
	l3.1-13.6l-12,7.1l-12-7.1l3.1,13.6l-10.5,9.2l13.9,1.3L378,157.6z"/>
<linearGradient id="SVGID_00000137128429505079389670000016478457701598047401_" gradientUnits="userSpaceOnUse" x1="420.0002" y1="-6" x2="420.0002" y2="437.0238" gradientTransform="matrix(1 0 0 -1 0 438)">
	<stop  offset="0" style="stop-color:#FFFFFF;stop-opacity:5.000000e-02"/>
	<stop  offset="1" style="stop-color:#FFFFFF;stop-opacity:0"/>
</linearGradient>
<path style="fill:url(#SVGID_00000137128429505079389670000016478457701598047401_);" d="M420,108l3.4-8l8.7-0.8l-6.5-5.7l1.9-8.5
	l-7.5,4.4l-7.5-4.4l1.9,8.5l-6.5,5.7l8.7,0.8L420,108z"/>
<linearGradient id="SVGID_00000013175457260221439190000001478872367357644202_" gradientUnits="userSpaceOnUse" x1="42" y1="-6" x2="42" y2="437.0238" gradientTransform="matrix(1 0 0 -1 0 438)">
	<stop  offset="0" style="stop-color:#FFFFFF;stop-opacity:5.000000e-02"/>
	<stop  offset="1" style="stop-color:#FFFFFF;stop-opacity:0"/>
</linearGradient>
<path style="fill:url(#SVGID_00000013175457260221439190000001478872367357644202_);" d="M47.5,60.9L42,73.6l-5.5-12.8l-13.9-1.3
	l10.5-9.2L30,36.8l12,7.1l12-7.1l-3.1,13.6l10.5,9.2L47.5,60.9z"/>
<linearGradient id="SVGID_00000011022378573654490570000010786588394763558554_" gradientUnits="userSpaceOnUse" x1="84.0002" y1="-6" x2="84.0002" y2="437.0238" gradientTransform="matrix(1 0 0 -1 0 438)">
	<stop  offset="0" style="stop-color:#FFFFFF;stop-opacity:5.000000e-02"/>
	<stop  offset="1" style="stop-color:#FFFFFF;stop-opacity:0"/>
</linearGradient>
<path style="fill:url(#SVGID_00000011022378573654490570000010786588394763558554_);" d="M87.4,16L84,24l-3.4-8l-8.7-0.8l6.5-5.7
	L76.5,1L84,5.4L91.5,1l-1.9,8.5l6.5,5.7L87.4,16z"/>
<linearGradient id="SVGID_00000172433868568078881630000015125874529261092274_" gradientUnits="userSpaceOnUse" x1="9.094947e-13" y1="-6" x2="9.366221e-13" y2="437.0238" gradientTransform="matrix(1 0 0 -1 0 438)">
	<stop  offset="0" style="stop-color:#FFFFFF;stop-opacity:5.000000e-02"/>
	<stop  offset="1" style="stop-color:#FFFFFF;stop-opacity:0"/>
</linearGradient>
<path style="fill:url(#SVGID_00000172433868568078881630000015125874529261092274_);" d="M3.4,16L0,24l-3.4-8l-8.7-0.8l6.5-5.7
	L-7.5,1L0,5.4L7.5,1L5.6,9.5l6.5,5.7L3.4,16z"/>
<linearGradient id="SVGID_00000151538120422728971120000014077174335907051444_" gradientUnits="userSpaceOnUse" x1="125.9996" y1="-6" x2="125.9996" y2="437.0238" gradientTransform="matrix(1 0 0 -1 0 438)">
	<stop  offset="0" style="stop-color:#FFFFFF;stop-opacity:5.000000e-02"/>
	<stop  offset="1" style="stop-color:#FFFFFF;stop-opacity:0"/>
</linearGradient>
<path style="fill:url(#SVGID_00000151538120422728971120000014077174335907051444_);" d="M126,73.6l5.5-12.8l13.9-1.3l-10.5-9.2
	l3.1-13.6l-12,7.1l-12-7.1l3.1,13.6l-10.5,9.2l13.9,1.3L126,73.6z"/>
<linearGradient id="SVGID_00000104692607240699813600000008079734907553308092_" gradientUnits="userSpaceOnUse" x1="168.0002" y1="-6" x2="168.0002" y2="437.0238" gradientTransform="matrix(1 0 0 -1 0 438)">
	<stop  offset="0" style="stop-color:#FFFFFF;stop-opacity:5.000000e-02"/>
	<stop  offset="1" style="stop-color:#FFFFFF;stop-opacity:0"/>
</linearGradient>
<path style="fill:url(#SVGID_00000104692607240699813600000008079734907553308092_);" d="M168,24l3.4-8l8.7-0.8l-6.5-5.7l1.9-8.5
	L168,5.4L160.5,1l1.9,8.5l-6.5,5.7l8.7,0.8L168,24z"/>
<linearGradient id="SVGID_00000049921197807063102760000018351125524099244985_" gradientUnits="userSpaceOnUse" x1="209.9996" y1="-6" x2="209.9996" y2="437.0238" gradientTransform="matrix(1 0 0 -1 0 438)">
	<stop  offset="0" style="stop-color:#FFFFFF;stop-opacity:5.000000e-02"/>
	<stop  offset="1" style="stop-color:#FFFFFF;stop-opacity:0"/>
</linearGradient>
<path style="fill:url(#SVGID_00000049921197807063102760000018351125524099244985_);" d="M215.5,60.9L210,73.6l-5.5-12.8l-13.9-1.3
	l10.5-9.2L198,36.8l12,7.1l12-7.1l-3.1,13.6l10.5,9.2L215.5,60.9z"/>
<linearGradient id="SVGID_00000088101816226441860150000005436697179670422421_" gradientUnits="userSpaceOnUse" x1="252.0002" y1="-6" x2="252.0002" y2="437.0238" gradientTransform="matrix(1 0 0 -1 0 438)">
	<stop  offset="0" style="stop-color:#FFFFFF;stop-opacity:5.000000e-02"/>
	<stop  offset="1" style="stop-color:#FFFFFF;stop-opacity:0"/>
</linearGradient>
<path style="fill:url(#SVGID_00000088101816226441860150000005436697179670422421_);" d="M255.4,16l-3.4,8l-3.4-8l-8.7-0.8l6.5-5.7
	L244.5,1l7.5,4.4l7.5-4.4l-1.9,8.5l6.5,5.7L255.4,16z"/>
<linearGradient id="SVGID_00000127013038290569618140000012564023219162421392_" gradientUnits="userSpaceOnUse" x1="293.9997" y1="-6" x2="293.9997" y2="437.0238" gradientTransform="matrix(1 0 0 -1 0 438)">
	<stop  offset="0" style="stop-color:#FFFFFF;stop-opacity:5.000000e-02"/>
	<stop  offset="1" style="stop-color:#FFFFFF;stop-opacity:0"/>
</linearGradient>
<path style="fill:url(#SVGID_00000127013038290569618140000012564023219162421392_);" d="M294,73.6l5.5-12.8l13.9-1.3l-10.5-9.2
	l3.1-13.6l-12,7.1l-12-7.1l3.1,13.6l-10.5,9.2l13.9,1.3L294,73.6z"/>
<linearGradient id="SVGID_00000072246757992989746220000005585271237172233872_" gradientUnits="userSpaceOnUse" x1="336.0002" y1="-6" x2="336.0002" y2="437.0238" gradientTransform="matrix(1 0 0 -1 0 438)">
	<stop  offset="0" style="stop-color:#FFFFFF;stop-opacity:5.000000e-02"/>
	<stop  offset="1" style="stop-color:#FFFFFF;stop-opacity:0"/>
</linearGradient>
<path style="fill:url(#SVGID_00000072246757992989746220000005585271237172233872_);" d="M336,24l3.4-8l8.7-0.8l-6.5-5.7l1.9-8.5
	L336,5.4L328.5,1l1.9,8.5l-6.5,5.7l8.7,0.8L336,24z"/>
<linearGradient id="SVGID_00000087376039545986884720000013889519842016133805_" gradientUnits="userSpaceOnUse" x1="377.9997" y1="-6" x2="377.9997" y2="437.0238" gradientTransform="matrix(1 0 0 -1 0 438)">
	<stop  offset="0" style="stop-color:#FFFFFF;stop-opacity:5.000000e-02"/>
	<stop  offset="1" style="stop-color:#FFFFFF;stop-opacity:0"/>
</linearGradient>
<path style="fill:url(#SVGID_00000087376039545986884720000013889519842016133805_);" d="M383.5,60.9L378,73.6l-5.5-12.8l-13.9-1.3
	l10.5-9.2L366,36.8l12,7.1l12-7.1l-3.1,13.6l10.5,9.2L383.5,60.9z"/>
<linearGradient id="SVGID_00000057842102481135583820000014881855792647381427_" gradientUnits="userSpaceOnUse" x1="420.0002" y1="-6" x2="420.0002" y2="437.0238" gradientTransform="matrix(1 0 0 -1 0 438)">
	<stop  offset="0" style="stop-color:#FFFFFF;stop-opacity:5.000000e-02"/>
	<stop  offset="1" style="stop-color:#FFFFFF;stop-opacity:0"/>
</linearGradient>
<path style="fill:url(#SVGID_00000057842102481135583820000014881855792647381427_);" d="M423.4,16l-3.4,8l-3.4-8l-8.7-0.8l6.5-5.7
	L412.5,1l7.5,4.4l7.5-4.4l-1.9,8.5l6.5,5.7L423.4,16z"/>
</svg>
