<svg width="100" height="100" viewBox="0 0 100 100" fill="none" xmlns="http://www.w3.org/2000/svg">
<path d="M14 33.2C14 26.4794 14 23.1191 15.3079 20.5521C16.4584 18.2942 18.2942 16.4584 20.5521 15.3079C23.1191 14 26.4794 14 33.2 14H66.8C73.5206 14 76.8809 14 79.4479 15.3079C81.7058 16.4584 83.5416 18.2942 84.6921 20.5521C86 23.1191 86 26.4794 86 33.2V66.8C86 73.5206 86 76.8809 84.6921 79.4479C83.5416 81.7058 81.7058 83.5416 79.4479 84.6921C76.8809 86 73.5206 86 66.8 86H33.2C26.4794 86 23.1191 86 20.5521 84.6921C18.2942 83.5416 16.4584 81.7058 15.3079 79.4479C14 76.8809 14 73.5206 14 66.8V33.2Z" fill="url(#paint0_linear_1_1937)"/>
<path d="M16.7706 36.3743C17.3179 30.576 17.5916 27.6769 19.1293 24.9206C20.3687 22.699 22.699 20.3687 24.9206 19.1293C27.6769 17.5916 30.576 17.3179 36.3743 16.7706C41.0283 16.3314 45.8984 16 50 16C54.1016 16 58.9717 16.3314 63.6257 16.7706C69.424 17.3179 72.3231 17.5916 75.0794 19.1293C77.301 20.3687 79.6313 22.699 80.8707 24.9206C82.4084 27.6769 82.6821 30.576 83.2294 36.3743C83.6686 41.0283 84 45.8984 84 50C84 54.1016 83.6686 58.9717 83.2294 63.6257C82.6821 69.424 82.4084 72.3231 80.8707 75.0794C79.6313 77.301 77.301 79.6313 75.0794 80.8707C72.3231 82.4084 69.424 82.6821 63.6257 83.2294C58.9717 83.6686 54.1016 84 50 84C45.8984 84 41.0283 83.6686 36.3743 83.2294C30.576 82.6821 27.6769 82.4084 24.9206 80.8707C22.699 79.6313 20.3687 77.301 19.1293 75.0794C17.5916 72.3231 17.3179 69.424 16.7706 63.6257C16.3314 58.9717 16 54.1016 16 50C16 45.8984 16.3314 41.0283 16.7706 36.3743Z" fill="url(#paint1_linear_1_1937)"/>
<g filter="url(#filter0_i_1_1937)">
<circle cx="50" cy="50" r="7" fill="#181A20"/>
</g>
<g filter="url(#filter1_i_1_1937)">
<circle cx="31" cy="69" r="7" fill="#181A20"/>
</g>
<g filter="url(#filter2_i_1_1937)">
<circle cx="69" cy="31" r="7" fill="#181A20"/>
</g>
<defs>
<filter id="filter0_i_1_1937" x="41" y="41" width="16" height="16" filterUnits="userSpaceOnUse" color-interpolation-filters="sRGB">
<feFlood flood-opacity="0" result="BackgroundImageFix"/>
<feBlend mode="normal" in="SourceGraphic" in2="BackgroundImageFix" result="shape"/>
<feColorMatrix in="SourceAlpha" type="matrix" values="0 0 0 0 0 0 0 0 0 0 0 0 0 0 0 0 0 0 127 0" result="hardAlpha"/>
<feOffset dx="-2" dy="-2"/>
<feGaussianBlur stdDeviation="2"/>
<feComposite in2="hardAlpha" operator="arithmetic" k2="-1" k3="1"/>
<feColorMatrix type="matrix" values="0 0 0 0 1 0 0 0 0 1 0 0 0 0 1 0 0 0 0.33 0"/>
<feBlend mode="normal" in2="shape" result="effect1_innerShadow_1_1937"/>
</filter>
<filter id="filter1_i_1_1937" x="22" y="60" width="16" height="16" filterUnits="userSpaceOnUse" color-interpolation-filters="sRGB">
<feFlood flood-opacity="0" result="BackgroundImageFix"/>
<feBlend mode="normal" in="SourceGraphic" in2="BackgroundImageFix" result="shape"/>
<feColorMatrix in="SourceAlpha" type="matrix" values="0 0 0 0 0 0 0 0 0 0 0 0 0 0 0 0 0 0 127 0" result="hardAlpha"/>
<feOffset dx="-2" dy="-2"/>
<feGaussianBlur stdDeviation="2"/>
<feComposite in2="hardAlpha" operator="arithmetic" k2="-1" k3="1"/>
<feColorMatrix type="matrix" values="0 0 0 0 1 0 0 0 0 1 0 0 0 0 1 0 0 0 0.33 0"/>
<feBlend mode="normal" in2="shape" result="effect1_innerShadow_1_1937"/>
</filter>
<filter id="filter2_i_1_1937" x="60" y="22" width="16" height="16" filterUnits="userSpaceOnUse" color-interpolation-filters="sRGB">
<feFlood flood-opacity="0" result="BackgroundImageFix"/>
<feBlend mode="normal" in="SourceGraphic" in2="BackgroundImageFix" result="shape"/>
<feColorMatrix in="SourceAlpha" type="matrix" values="0 0 0 0 0 0 0 0 0 0 0 0 0 0 0 0 0 0 127 0" result="hardAlpha"/>
<feOffset dx="-2" dy="-2"/>
<feGaussianBlur stdDeviation="2"/>
<feComposite in2="hardAlpha" operator="arithmetic" k2="-1" k3="1"/>
<feColorMatrix type="matrix" values="0 0 0 0 1 0 0 0 0 1 0 0 0 0 1 0 0 0 0.33 0"/>
<feBlend mode="normal" in2="shape" result="effect1_innerShadow_1_1937"/>
</filter>
<linearGradient id="paint0_linear_1_1937" x1="14" y1="14" x2="86" y2="86" gradientUnits="userSpaceOnUse">
<stop stop-color="white"/>
<stop offset="1" stop-color="#999999"/>
</linearGradient>
<linearGradient id="paint1_linear_1_1937" x1="16" y1="16" x2="84" y2="84" gradientUnits="userSpaceOnUse">
<stop stop-color="#D1D1D1"/>
<stop offset="1" stop-color="white"/>
</linearGradient>
</defs>
</svg>
